<?xml version="1.0" standalone="no"?>
<!DOCTYPE svg PUBLIC "-//W3C//DTD SVG 20010904//EN"
 "http://www.w3.org/TR/2001/REC-SVG-20010904/DTD/svg10.dtd">
<svg version="1.0" xmlns="http://www.w3.org/2000/svg"
 width="1024.000000pt" height="1024.000000pt" viewBox="0 0 1024.000000 1024.000000"
 preserveAspectRatio="xMidYMid meet">
<metadata>
Created by potrace 1.11, written by Peter Selinger 2001-2013
</metadata>
<g transform="translate(0.000000,1024.000000) scale(0.100000,-0.100000)"
fill="#000000" stroke="none">
<path d="M4660 10199 c-25 -5 -90 -14 -145 -19 -193 -19 -269 -30 -279 -40 -5
-5 -32 -10 -59 -10 -27 0 -70 -6 -96 -14 -58 -18 -190 -50 -266 -65 -22 -4
-50 -13 -62 -19 -12 -7 -33 -12 -46 -12 -14 0 -38 -7 -53 -15 -16 -8 -39 -15
-51 -15 -12 0 -25 -4 -28 -10 -3 -5 -19 -10 -35 -10 -16 0 -35 -6 -42 -13 -7
-8 -30 -17 -51 -21 -20 -4 -37 -11 -37 -16 0 -6 -13 -10 -29 -10 -16 0 -42 -6
-58 -14 -15 -8 -41 -19 -58 -26 -16 -7 -43 -18 -58 -26 -16 -8 -37 -14 -47
-14 -9 0 -23 -7 -30 -15 -7 -8 -23 -15 -35 -15 -12 0 -28 -7 -35 -15 -7 -8
-21 -15 -31 -15 -11 0 -19 -4 -19 -10 0 -5 -11 -10 -24 -10 -13 0 -29 -7 -36
-15 -7 -8 -18 -15 -25 -15 -13 0 -74 -29 -85 -40 -12 -12 -73 -40 -86 -40 -8
0 -17 -7 -20 -15 -4 -8 -17 -15 -30 -15 -13 0 -24 -4 -24 -9 0 -5 -12 -14 -27
-20 -41 -15 -107 -54 -116 -68 -4 -7 -17 -13 -27 -13 -11 0 -20 -4 -20 -8 0
-5 -20 -19 -45 -31 -25 -12 -45 -27 -45 -32 0 -5 -9 -9 -20 -9 -11 0 -23 -7
-26 -15 -4 -8 -12 -15 -20 -15 -8 0 -14 -4 -14 -10 0 -5 -11 -12 -25 -16 -14
-3 -25 -10 -25 -15 0 -5 -6 -9 -14 -9 -8 0 -16 -7 -20 -15 -3 -8 -11 -15 -18
-15 -7 0 -25 -11 -40 -25 -15 -14 -31 -25 -35 -25 -4 0 -22 -14 -40 -30 -18
-17 -37 -30 -42 -30 -6 0 -11 -4 -11 -8 0 -4 -18 -19 -40 -32 -22 -14 -40 -28
-40 -32 0 -5 -7 -8 -15 -8 -8 0 -15 -7 -15 -15 0 -8 -6 -15 -14 -15 -8 0 -16
-4 -18 -8 -1 -5 -25 -25 -51 -45 -26 -20 -63 -52 -81 -72 -18 -19 -38 -35 -45
-35 -6 0 -11 -7 -11 -15 0 -8 -5 -15 -11 -15 -13 0 -36 -21 -192 -177 -156
-156 -177 -179 -177 -192 0 -6 -7 -11 -15 -11 -8 0 -15 -5 -15 -11 0 -7 -16
-27 -35 -45 -20 -18 -52 -55 -72 -81 -20 -26 -40 -49 -45 -51 -4 -2 -8 -10 -8
-18 0 -8 -7 -14 -15 -14 -8 0 -15 -7 -15 -15 0 -8 -3 -15 -7 -15 -5 0 -19 -18
-33 -40 -13 -22 -28 -40 -32 -40 -4 0 -8 -5 -8 -11 0 -5 -13 -24 -30 -42 -16
-18 -30 -36 -30 -40 0 -4 -11 -20 -25 -35 -14 -15 -25 -33 -25 -40 0 -7 -7
-15 -15 -18 -8 -4 -15 -12 -15 -20 0 -8 -4 -14 -9 -14 -5 0 -12 -11 -15 -25
-4 -14 -11 -25 -16 -25 -6 0 -10 -7 -10 -15 0 -8 -4 -15 -10 -15 -5 0 -12 -11
-16 -25 -3 -14 -10 -25 -14 -25 -5 0 -19 -20 -31 -45 -12 -25 -26 -45 -31 -45
-4 0 -8 -9 -8 -20 0 -10 -6 -23 -12 -27 -15 -9 -54 -75 -69 -115 -6 -16 -15
-28 -20 -28 -5 0 -9 -11 -9 -24 0 -13 -7 -26 -15 -30 -8 -3 -15 -12 -15 -19 0
-14 -29 -78 -39 -87 -11 -9 -41 -72 -41 -85 0 -7 -7 -18 -15 -25 -8 -7 -15
-23 -15 -36 0 -13 -4 -24 -10 -24 -5 0 -10 -8 -10 -17 0 -10 -7 -27 -15 -37
-8 -11 -15 -27 -15 -37 0 -9 -7 -22 -15 -29 -8 -7 -15 -21 -15 -30 0 -10 -6
-31 -14 -47 -8 -15 -18 -39 -24 -53 -5 -14 -17 -42 -26 -63 -9 -21 -16 -49
-16 -62 0 -14 -4 -25 -10 -25 -5 0 -13 -18 -16 -40 -4 -22 -10 -40 -15 -40 -5
0 -12 -18 -15 -40 -4 -22 -11 -43 -15 -46 -5 -3 -9 -15 -9 -27 0 -12 -7 -35
-15 -51 -8 -15 -15 -41 -15 -56 0 -15 -7 -41 -15 -56 -8 -16 -15 -39 -15 -52
0 -12 -4 -30 -9 -40 -8 -16 -18 -59 -40 -172 -5 -25 -14 -58 -20 -73 -6 -16
-11 -50 -11 -76 0 -26 -5 -52 -11 -58 -6 -6 -14 -50 -16 -97 -3 -48 -10 -89
-14 -92 -5 -3 -9 -33 -9 -67 0 -34 -7 -100 -15 -147 -18 -105 -22 -840 -4
-935 6 -32 15 -101 20 -154 17 -177 28 -261 39 -281 5 -10 10 -37 10 -60 0
-23 6 -62 14 -88 24 -82 39 -146 44 -185 2 -20 8 -40 13 -43 5 -3 9 -20 9 -37
0 -18 7 -45 15 -61 8 -15 15 -40 15 -55 0 -15 4 -31 9 -37 6 -5 14 -27 20 -49
5 -22 14 -57 20 -79 5 -21 14 -43 20 -49 6 -6 11 -20 11 -32 0 -12 7 -30 15
-41 8 -10 15 -30 15 -44 0 -14 7 -34 15 -44 8 -11 15 -30 15 -42 0 -13 5 -26
10 -29 5 -3 10 -15 10 -25 0 -10 7 -25 15 -34 8 -8 15 -22 15 -31 0 -9 6 -29
14 -43 41 -79 66 -136 66 -152 0 -10 7 -20 15 -24 8 -3 15 -11 15 -18 0 -16
62 -142 73 -146 4 -2 7 -12 7 -22 0 -9 7 -23 15 -30 8 -7 15 -19 15 -26 0 -8
11 -31 24 -52 12 -20 26 -47 30 -59 4 -13 11 -23 16 -23 4 0 10 -8 14 -17 3
-10 15 -31 25 -48 11 -16 28 -46 38 -65 9 -19 23 -39 30 -43 7 -4 13 -13 13
-19 0 -5 13 -27 30 -48 17 -21 30 -43 30 -49 0 -6 4 -11 9 -11 5 0 11 -8 15
-17 8 -25 27 -53 54 -79 12 -11 22 -26 22 -31 0 -6 9 -21 21 -34 11 -13 28
-33 37 -44 10 -11 28 -37 41 -57 12 -21 27 -38 32 -38 5 0 9 -7 9 -15 0 -8 7
-15 15 -15 8 0 15 -5 15 -11 0 -12 59 -92 72 -97 5 -2 8 -7 8 -11 0 -4 24 -33
53 -64 28 -30 81 -88 117 -127 90 -99 134 -143 235 -235 49 -44 108 -99 133
-123 25 -23 49 -42 53 -42 5 0 9 -4 9 -9 0 -4 19 -21 41 -36 23 -15 57 -42 76
-61 18 -19 38 -34 43 -34 4 0 10 -4 12 -8 1 -4 20 -18 41 -31 20 -12 37 -27
37 -32 0 -5 6 -9 14 -9 8 0 16 -4 18 -8 2 -4 20 -18 41 -31 20 -12 37 -27 37
-32 0 -5 4 -9 9 -9 9 0 142 -87 151 -99 6 -7 38 -28 65 -41 11 -5 43 -23 70
-40 28 -17 58 -33 68 -36 9 -4 17 -10 17 -14 0 -5 10 -12 23 -16 12 -4 24 -9
27 -13 3 -3 25 -16 50 -29 25 -12 52 -27 60 -32 8 -4 32 -16 52 -24 20 -9 40
-21 43 -26 3 -6 14 -10 24 -10 10 0 24 -7 31 -15 7 -8 20 -15 30 -15 10 0 23
-7 30 -15 7 -8 23 -15 36 -15 13 0 24 -4 24 -9 0 -5 13 -12 30 -16 17 -4 30
-11 30 -16 0 -5 11 -9 24 -9 13 0 26 -7 30 -15 3 -8 16 -15 29 -15 13 0 32 -7
43 -15 10 -8 29 -15 42 -15 12 0 22 -4 22 -9 0 -5 18 -11 40 -15 22 -3 40 -11
40 -16 0 -6 12 -10 28 -10 15 0 36 -7 46 -15 11 -8 29 -15 40 -15 12 0 30 -7
40 -15 11 -8 30 -15 42 -15 13 0 26 -4 29 -10 3 -5 18 -10 33 -10 15 -1 38 -7
52 -15 14 -8 39 -14 55 -15 17 0 35 -4 41 -10 9 -9 33 -15 159 -41 28 -6 54
-15 60 -20 5 -5 24 -9 42 -9 19 0 50 -7 70 -15 19 -8 56 -15 82 -15 26 0 52
-5 57 -10 10 -10 93 -22 269 -40 50 -4 110 -13 135 -19 61 -14 952 -15 1018 0
27 5 89 14 138 19 204 22 252 28 272 39 11 6 43 11 69 11 27 0 53 4 58 9 6 6
35 14 65 20 30 5 75 15 100 21 25 7 63 16 85 22 22 5 54 14 70 20 17 5 48 13
70 17 22 4 50 13 62 19 12 7 33 12 47 12 14 0 26 5 26 10 0 6 13 10 29 10 16
0 36 7 45 15 8 8 25 15 38 15 13 0 33 7 44 15 10 8 28 15 40 15 11 0 29 7 40
15 10 8 29 15 41 15 12 0 24 4 27 9 3 5 22 12 41 15 19 4 35 11 35 16 0 6 11
10 25 10 14 0 28 7 31 15 4 8 13 15 22 15 9 0 35 9 59 20 24 11 64 29 91 41
26 11 54 25 62 30 8 5 22 12 30 15 8 3 22 10 30 15 8 5 36 19 63 31 26 12 47
25 47 30 0 4 8 8 19 8 10 0 24 7 31 15 7 8 19 15 26 15 8 0 14 5 14 10 0 6 9
10 20 10 10 0 23 6 27 13 4 6 28 22 53 35 53 27 83 45 90 53 3 4 15 9 28 13
12 4 22 12 22 17 0 5 7 9 15 9 8 0 15 4 15 10 0 5 11 12 24 16 14 3 27 12 30
20 3 8 12 14 20 14 8 0 16 3 18 8 3 7 115 84 133 91 6 2 22 16 37 32 15 16 31
29 35 29 5 0 20 11 35 25 15 14 32 25 37 25 6 0 14 6 18 13 4 7 28 28 53 47
25 19 47 38 48 42 2 5 10 8 18 8 8 0 14 7 14 15 0 8 5 15 11 15 6 0 23 12 39
27 15 16 43 39 60 53 42 33 377 368 410 410 14 17 37 45 53 60 15 16 27 33 27
39 0 6 7 11 15 11 8 0 15 6 15 14 0 8 3 16 8 18 4 2 23 23 42 48 19 25 40 49
47 53 7 4 13 12 13 18 0 5 11 22 25 37 14 15 25 30 25 35 0 4 13 20 29 35 16
15 30 32 32 37 7 18 84 130 92 133 4 2 7 10 7 18 0 8 6 17 14 20 8 3 17 16 20
30 4 13 11 24 16 24 6 0 10 7 10 15 0 8 4 15 9 15 5 0 13 10 17 23 4 12 9 24
13 27 8 7 26 37 53 90 13 25 26 47 31 48 4 2 16 23 27 47 11 24 24 47 30 50 5
3 10 15 10 26 0 10 4 19 8 19 5 0 18 21 30 47 12 27 27 56 32 66 6 9 15 25 20
35 6 9 13 24 16 32 10 24 42 96 64 143 11 24 20 51 20 60 0 9 7 17 15 17 10 0
15 10 15 30 0 17 4 30 9 30 5 0 13 14 16 32 4 18 11 39 15 48 22 45 40 93 40
108 0 9 7 26 15 36 8 11 15 31 15 44 0 13 7 30 15 38 8 9 15 29 15 45 0 16 5
29 10 29 6 0 10 12 10 28 1 15 7 38 15 52 8 14 14 39 15 56 0 16 4 34 10 40 5
5 14 30 19 54 5 25 17 74 26 110 8 36 20 88 26 115 6 28 15 54 20 60 5 5 9 34
9 65 0 31 5 61 11 67 6 6 13 46 16 89 3 44 9 84 13 89 4 6 10 53 14 105 3 53
11 111 16 130 14 48 13 954 -1 1018 -5 27 -14 89 -19 138 -22 213 -29 257 -39
267 -6 6 -11 37 -11 68 0 32 -4 60 -9 63 -5 4 -12 25 -15 49 -4 23 -13 65 -21
92 -7 28 -19 70 -25 95 -6 25 -18 66 -25 91 -8 26 -15 57 -15 70 -1 13 -7 35
-15 49 -8 14 -14 37 -15 53 0 15 -4 27 -10 27 -5 0 -10 13 -10 29 0 16 -7 36
-15 45 -8 8 -15 23 -15 33 0 10 -7 31 -15 47 -8 15 -15 36 -15 45 0 9 -7 25
-15 35 -8 11 -15 30 -15 43 0 13 -4 23 -10 23 -5 0 -10 10 -10 23 0 13 -7 32
-15 43 -8 10 -15 29 -15 42 0 12 -7 25 -15 28 -8 4 -15 17 -15 30 0 13 -4 24
-10 24 -5 0 -10 5 -10 11 0 19 -55 138 -100 217 -6 9 -13 24 -16 32 -20 49
-36 80 -44 85 -6 3 -10 15 -10 26 0 10 -4 19 -10 19 -5 0 -12 11 -16 25 -3 14
-10 25 -15 25 -5 0 -9 6 -9 14 0 8 -6 21 -12 28 -12 13 -22 29 -65 110 -10 18
-20 35 -23 38 -7 7 -29 43 -37 60 -4 8 -9 17 -12 20 -4 3 -24 32 -46 65 -22
33 -43 62 -47 63 -5 2 -8 8 -8 12 0 5 -11 21 -25 36 -14 15 -25 32 -25 38 0 6
-18 31 -40 55 -22 24 -42 52 -45 62 -4 11 -11 19 -16 19 -5 0 -9 4 -9 9 0 5
-20 30 -45 57 -25 26 -45 52 -45 57 0 5 -11 20 -25 33 -14 13 -25 25 -25 28 0
3 -19 25 -42 50 -24 24 -59 63 -78 87 -45 54 -81 89 -91 89 -5 0 -9 5 -9 10 0
6 -27 37 -60 70 -33 33 -64 60 -70 60 -5 0 -10 4 -10 8 0 11 -28 40 -86 87
-26 22 -68 59 -92 83 -23 23 -47 42 -52 42 -6 0 -10 4 -10 9 0 4 -19 21 -41
36 -23 15 -57 42 -76 61 -18 19 -38 34 -43 34 -4 0 -10 4 -12 8 -1 4 -20 18
-40 31 -21 12 -38 27 -38 32 0 5 -6 9 -14 9 -8 0 -16 4 -18 8 -1 4 -20 18 -40
31 -21 12 -38 27 -38 32 0 5 -4 9 -8 9 -14 0 -152 93 -152 102 0 4 -6 8 -14 8
-8 0 -21 6 -28 13 -7 7 -20 16 -28 20 -8 3 -37 20 -65 37 -27 17 -58 33 -67
36 -10 4 -18 10 -18 14 0 5 -10 12 -22 16 -13 4 -25 9 -28 13 -3 3 -23 14 -45
25 -22 10 -47 22 -55 27 -8 4 -49 25 -90 45 -41 20 -76 41 -78 45 -2 5 -12 9
-22 9 -9 0 -23 7 -30 15 -7 8 -19 15 -28 15 -21 0 -92 32 -92 42 0 4 -9 8 -19
8 -11 0 -32 6 -48 14 -15 8 -46 22 -68 32 -22 9 -48 21 -57 25 -10 5 -26 9
-36 9 -10 0 -27 7 -38 15 -10 8 -28 15 -40 15 -11 0 -29 7 -40 15 -10 8 -27
15 -37 15 -11 0 -31 6 -45 14 -36 18 -94 36 -118 36 -11 0 -29 7 -40 15 -10 8
-35 15 -54 15 -19 0 -44 7 -54 15 -11 8 -37 15 -57 15 -21 0 -41 5 -44 10 -3
6 -20 10 -36 10 -16 0 -45 6 -63 14 -18 7 -56 17 -84 21 -29 4 -54 11 -58 16
-3 5 -28 9 -55 9 -28 0 -58 4 -68 10 -19 10 -118 23 -295 40 -54 5 -124 14
-154 20 -69 12 -848 12 -912 -1z m307 -410 c59 -14 63 -16 87 -31 43 -28 86
-76 86 -97 0 -11 5 -21 10 -21 16 0 12 -114 -6 -150 -19 -36 -49 -70 -63 -70
-19 0 -21 -20 -6 -50 8 -16 19 -30 24 -30 5 0 12 -8 15 -17 13 -33 31 -63 38
-63 5 0 8 -6 8 -14 0 -7 7 -19 15 -26 8 -7 15 -21 15 -32 0 -17 -7 -19 -77
-16 -76 3 -76 3 -96 38 -10 19 -28 43 -38 53 -10 10 -19 24 -19 32 0 8 -4 15
-10 15 -5 0 -10 5 -10 11 0 21 -29 39 -64 39 l-36 0 0 -89 c0 -122 1 -121 -76
-121 -44 0 -64 4 -64 13 0 6 -6 104 -12 217 -6 113 -12 248 -12 300 l-1 95 98
6 c54 4 101 10 104 13 9 9 37 7 90 -5z m690 -44 c13 -14 23 -37 23 -54 0 -16
7 -36 15 -45 8 -8 15 -26 15 -41 0 -14 5 -36 12 -48 6 -12 15 -38 19 -57 27
-116 34 -140 41 -140 4 0 8 -15 8 -33 0 -18 7 -42 15 -53 8 -10 15 -34 15 -52
0 -18 7 -40 15 -48 21 -21 19 -51 -4 -57 -29 -7 -124 5 -137 18 -7 7 -16 30
-20 51 -4 21 -12 44 -19 50 -7 7 -61 15 -128 20 -101 6 -117 5 -117 -8 0 -9
-7 -21 -15 -28 -8 -7 -15 -20 -15 -30 0 -10 -8 -20 -18 -22 -27 -7 -132 3
-138 14 -8 12 16 71 33 81 7 4 13 17 13 27 0 11 3 20 8 20 4 0 18 25 31 55 14
30 28 55 33 55 4 0 8 11 8 24 0 13 4 26 8 28 5 2 15 15 23 30 8 15 30 58 49
95 19 37 37 70 40 73 3 3 15 26 28 52 27 55 33 59 92 53 30 -4 52 -13 67 -30z
m508 -63 c74 -26 132 -42 153 -42 12 0 22 -3 22 -7 0 -5 19 -16 43 -26 49 -20
112 -74 121 -105 4 -12 12 -22 17 -22 5 0 9 -11 9 -24 0 -13 7 -30 16 -37 13
-10 15 -29 12 -98 -2 -56 -7 -86 -16 -89 -6 -2 -12 -14 -12 -27 0 -12 -7 -28
-15 -35 -8 -7 -15 -19 -15 -27 0 -7 -7 -16 -15 -19 -8 -4 -15 -11 -15 -16 0
-15 -43 -47 -62 -48 -10 0 -18 -4 -18 -10 0 -5 -5 -10 -11 -10 -6 0 -26 -7
-44 -16 -41 -19 -141 -15 -230 11 -33 9 -78 20 -100 25 -22 5 -57 15 -78 22
l-39 13 7 50 c3 28 10 54 16 60 5 5 9 25 9 45 1 19 7 46 15 60 8 14 14 39 15
56 0 16 7 39 15 50 8 10 15 31 15 47 0 15 4 35 10 45 8 15 18 52 36 142 11 52
12 52 62 47 26 -2 61 -9 77 -15z m-2125 -22 c0 -6 -4 -18 -9 -28 -14 -29 -33
-85 -39 -117 -3 -16 -11 -35 -18 -43 -8 -7 -14 -27 -14 -43 0 -16 -4 -29 -9
-29 -5 0 -12 -18 -16 -40 -4 -22 -11 -42 -16 -46 -12 -7 -12 -51 0 -58 5 -3
12 -26 15 -51 4 -24 11 -47 17 -50 5 -4 9 -19 9 -34 0 -15 7 -36 15 -47 25
-33 19 -62 -15 -69 -16 -4 -32 -11 -35 -16 -4 -5 -21 -9 -38 -9 -27 0 -35 6
-49 39 -10 20 -18 47 -18 58 0 11 -7 34 -15 49 -8 16 -15 37 -15 46 0 41 -58
121 -102 142 -25 12 -53 31 -73 51 -29 28 -103 85 -110 85 -3 0 -14 8 -25 18
-32 30 -16 59 36 67 24 3 46 10 49 16 11 16 30 10 66 -21 19 -16 39 -34 46
-40 7 -5 17 -10 22 -10 6 0 14 -6 18 -13 4 -8 26 -26 48 -40 43 -29 55 -24 55
24 0 15 7 32 15 39 8 7 15 25 15 41 0 16 4 29 9 29 5 0 11 17 15 38 5 31 12
40 43 54 42 18 123 23 123 8z m2811 -197 c33 -20 36 -38 14 -101 -15 -43 -20
-53 -49 -109 -9 -17 -16 -40 -16 -51 0 -12 -4 -23 -9 -26 -5 -4 -17 -32 -27
-64 -10 -31 -23 -66 -31 -77 -7 -11 -13 -29 -13 -42 0 -12 -4 -24 -9 -27 -5
-3 -12 -17 -15 -32 -12 -46 -40 -67 -80 -60 -20 4 -36 11 -36 16 0 6 -9 10
-21 10 -19 0 -20 4 -14 43 4 23 13 52 21 64 8 12 14 31 14 43 0 11 4 20 10 20
5 0 12 16 16 35 3 19 10 38 15 41 5 3 9 15 9 27 0 12 7 31 15 41 8 11 15 30
15 42 0 12 7 24 15 28 8 3 15 16 15 30 0 14 4 27 9 31 5 3 13 20 17 37 3 18
10 39 15 48 4 8 10 23 13 33 7 23 68 23 107 0z m-3491 -32 c0 -11 8 -33 17
-50 17 -29 17 -31 -4 -51 -12 -11 -31 -20 -41 -20 -11 0 -25 -6 -32 -14 -6 -8
-21 -16 -32 -18 -26 -4 -49 -38 -30 -45 6 -3 12 -15 12 -28 0 -12 7 -28 15
-35 8 -7 15 -17 15 -23 0 -5 14 -39 30 -74 17 -34 30 -68 30 -73 0 -6 5 -10
10 -10 6 0 10 -11 10 -24 0 -13 7 -29 15 -36 8 -7 15 -20 15 -30 0 -10 7 -23
15 -30 8 -7 15 -28 15 -46 0 -29 -3 -34 -24 -34 -13 0 -29 -7 -36 -15 -7 -8
-27 -15 -45 -15 -29 0 -34 4 -40 30 -4 17 -11 30 -16 30 -5 0 -9 5 -9 11 0 6
-6 25 -14 42 -8 18 -17 39 -20 47 -3 8 -10 22 -15 30 -5 8 -18 36 -28 62 -10
27 -21 48 -25 48 -5 0 -8 11 -8 25 0 13 -6 28 -14 32 -8 4 -16 19 -18 32 -4
28 -38 53 -45 34 -3 -7 -16 -13 -29 -13 -13 0 -24 -4 -24 -9 0 -5 -13 -12 -30
-16 -16 -4 -30 -11 -30 -16 0 -15 -19 -10 -40 11 -11 11 -20 29 -20 40 0 11
-4 20 -10 20 -5 0 -10 14 -10 30 0 23 5 30 19 30 10 0 24 7 31 15 7 8 18 15
25 15 7 0 37 12 67 26 29 14 69 33 88 41 19 8 42 19 50 24 8 5 22 12 30 15 8
3 29 12 47 20 17 8 36 14 42 14 6 0 11 5 11 10 0 6 18 10 40 10 33 0 40 -3 40
-19z m3926 -156 c10 -8 27 -15 37 -15 10 0 20 -7 23 -15 4 -8 11 -15 16 -15
11 0 88 -78 104 -106 6 -11 15 -35 19 -54 4 -19 12 -40 17 -47 16 -20 -10
-186 -32 -203 -3 -3 -9 -12 -13 -20 -18 -39 -61 -90 -76 -90 -5 0 -11 -3 -13
-7 -6 -15 -63 -50 -93 -58 -68 -18 -224 -5 -246 21 -6 8 -15 14 -20 14 -5 0
-17 8 -27 18 -11 9 -28 24 -38 33 -31 26 -64 68 -64 82 0 7 -7 22 -15 33 -10
13 -14 46 -14 114 0 68 4 101 14 114 8 11 15 28 15 38 0 10 4 18 9 18 5 0 12
8 15 18 7 21 55 75 76 85 8 4 33 18 55 32 35 21 52 24 136 25 69 0 101 -4 115
-15z m-4518 -113 c9 -10 26 -35 37 -57 11 -22 26 -46 33 -53 6 -7 12 -20 12
-28 0 -8 4 -14 9 -14 5 0 12 -8 15 -17 13 -33 31 -63 38 -63 5 0 8 -6 8 -14 0
-8 6 -21 13 -28 6 -7 21 -31 32 -53 11 -22 26 -46 32 -53 7 -7 13 -20 13 -28
0 -8 4 -14 9 -14 5 0 12 -11 15 -25 4 -14 11 -25 16 -25 14 0 12 -59 -2 -73
-7 -7 -30 -21 -50 -32 -37 -19 -38 -19 -55 1 -23 25 -36 47 -65 104 -13 25
-26 47 -29 50 -4 3 -17 23 -28 45 -27 49 -44 78 -51 85 -3 3 -13 21 -23 40
-36 68 -52 95 -64 108 -7 7 -13 19 -13 27 0 7 -5 15 -10 17 -6 2 -12 16 -13
32 -2 24 4 32 38 49 22 12 42 25 43 29 6 13 21 9 40 -10z m2627 -153 c234 -16
320 -25 348 -37 16 -7 45 -12 66 -12 21 0 55 -7 74 -15 20 -8 57 -15 82 -15
25 0 45 -4 45 -8 0 -8 66 -25 150 -39 19 -3 44 -12 55 -19 11 -8 34 -14 52
-14 17 0 34 -4 38 -9 3 -5 19 -12 36 -16 17 -4 42 -13 57 -21 15 -8 35 -14 44
-14 9 0 20 -4 23 -10 3 -5 15 -10 25 -10 10 0 31 -6 47 -14 46 -24 100 -46
112 -46 6 0 11 -4 11 -10 0 -5 13 -10 29 -10 16 0 31 -6 35 -15 3 -8 12 -15
19 -15 8 0 38 -13 68 -28 30 -16 70 -35 89 -42 19 -8 37 -17 40 -20 5 -7 16
-13 107 -60 26 -14 50 -27 53 -30 10 -10 45 -31 63 -36 9 -4 17 -10 17 -15 0
-5 6 -9 13 -9 8 0 22 -9 32 -20 10 -11 24 -20 32 -20 7 0 13 -4 13 -9 0 -5 8
-11 18 -15 22 -7 49 -25 81 -53 14 -13 32 -23 39 -23 7 0 15 -7 18 -15 4 -8
10 -15 16 -15 5 0 19 -10 31 -23 12 -13 39 -33 60 -46 20 -12 37 -27 37 -32 0
-5 5 -9 11 -9 5 0 22 -11 37 -25 15 -13 42 -38 60 -55 18 -16 35 -30 37 -30 6
0 315 -309 315 -315 0 -2 14 -19 30 -37 17 -18 42 -45 55 -60 14 -15 25 -32
25 -37 0 -6 7 -11 15 -11 8 0 15 -7 15 -15 0 -8 5 -15 10 -15 6 0 10 -6 10
-13 0 -7 14 -27 30 -45 17 -18 30 -37 30 -43 0 -5 4 -9 9 -9 5 0 20 -17 32
-37 13 -21 27 -39 31 -41 4 -2 8 -10 8 -18 0 -8 4 -14 9 -14 5 0 13 -10 17
-22 3 -12 17 -33 31 -47 13 -14 26 -36 29 -48 4 -13 9 -23 13 -23 4 0 16 -18
27 -40 10 -22 22 -40 27 -40 4 0 7 -6 7 -14 0 -8 6 -21 14 -28 7 -8 17 -24 20
-36 4 -12 12 -22 17 -22 5 0 9 -9 9 -19 0 -11 4 -22 9 -26 6 -3 20 -27 33 -53
13 -26 26 -48 31 -50 4 -2 7 -14 7 -27 0 -12 7 -28 15 -35 8 -7 15 -20 15 -30
0 -10 7 -23 15 -30 8 -7 15 -21 15 -30 0 -20 30 -83 43 -88 4 -2 7 -13 7 -25
0 -12 7 -35 15 -51 8 -15 15 -37 15 -47 0 -11 4 -19 9 -19 5 0 12 -18 16 -40
4 -22 10 -40 15 -40 5 0 11 -18 15 -40 4 -22 11 -40 16 -40 5 0 9 -14 9 -31 0
-17 5 -40 12 -52 6 -12 15 -38 19 -57 25 -112 31 -137 39 -155 5 -11 11 -38
14 -60 2 -22 9 -58 14 -80 19 -73 35 -159 43 -235 4 -41 12 -115 18 -165 12
-114 12 -620 0 -740 -5 -49 -13 -126 -18 -170 -4 -44 -13 -96 -20 -115 -6 -19
-11 -49 -11 -66 0 -17 -7 -48 -15 -67 -8 -20 -15 -55 -15 -77 0 -22 -4 -40 -9
-40 -4 0 -11 -21 -15 -47 -3 -26 -10 -61 -15 -78 -5 -16 -17 -57 -27 -90 -9
-33 -20 -67 -25 -76 -4 -9 -11 -33 -14 -53 -4 -20 -11 -36 -15 -36 -5 0 -11
-18 -15 -40 -4 -22 -11 -40 -16 -40 -5 0 -9 -9 -9 -21 0 -20 35 -58 55 -59 6
0 37 -25 70 -55 61 -57 84 -66 105 -40 7 8 19 15 26 15 8 0 14 4 14 9 0 13 93
41 135 41 42 0 135 -28 135 -41 0 -5 6 -9 13 -9 15 0 97 -79 97 -93 0 -6 7
-18 16 -28 24 -26 24 -211 0 -237 -9 -10 -16 -23 -16 -28 0 -12 -61 -78 -80
-87 -8 -4 -22 -11 -30 -15 -48 -28 -67 -32 -135 -32 -41 0 -83 4 -93 9 -9 5
-24 12 -32 15 -38 14 -120 90 -120 110 0 5 -7 17 -16 27 -13 14 -16 41 -16
132 1 114 1 115 -29 141 -16 14 -35 26 -43 26 -7 0 -19 7 -26 15 -7 8 -17 15
-22 15 -5 0 -19 11 -32 25 l-23 24 -16 -38 c-9 -21 -17 -45 -17 -54 0 -10 -3
-17 -8 -17 -4 0 -17 -24 -30 -52 -13 -29 -27 -60 -32 -68 -5 -8 -24 -44 -41
-80 -18 -36 -39 -71 -46 -78 -7 -7 -13 -20 -13 -28 0 -8 -4 -14 -9 -14 -5 0
-12 -13 -16 -30 -4 -16 -10 -30 -15 -30 -4 0 -10 -8 -14 -17 -6 -21 -25 -51
-43 -71 -7 -7 -13 -19 -13 -25 0 -7 -11 -24 -25 -39 -14 -15 -25 -29 -25 -31
0 -11 -91 -141 -114 -162 -14 -13 -26 -27 -26 -30 0 -10 -50 -73 -97 -124 -24
-25 -43 -50 -43 -55 0 -5 -11 -19 -25 -32 -14 -13 -25 -28 -25 -34 0 -5 -6
-10 -13 -10 -8 0 -20 -11 -27 -25 -7 -14 -19 -25 -27 -25 -7 0 -13 -4 -13 -10
0 -13 -117 -130 -130 -130 -5 0 -10 -4 -10 -9 0 -12 -59 -71 -71 -71 -5 0 -9
-7 -9 -15 0 -8 -5 -15 -11 -15 -6 0 -16 -6 -23 -12 -29 -29 -76 -68 -81 -68
-2 0 -17 -12 -33 -27 -16 -16 -39 -35 -52 -43 -13 -8 -36 -27 -52 -42 -16 -16
-33 -28 -38 -28 -6 0 -10 -4 -10 -9 0 -5 -11 -12 -25 -15 -14 -4 -25 -11 -25
-16 0 -6 -7 -10 -15 -10 -8 0 -15 -4 -15 -9 0 -5 -17 -20 -37 -32 -21 -13 -40
-25 -43 -28 -8 -9 -43 -30 -67 -41 -13 -5 -23 -14 -23 -20 0 -5 -5 -10 -10
-10 -6 0 -28 -11 -50 -25 -22 -14 -46 -25 -55 -25 -8 0 -15 -7 -15 -15 0 -8
-9 -15 -19 -15 -11 0 -22 -4 -25 -9 -8 -12 -312 -161 -330 -161 -9 0 -16 -4
-16 -10 0 -5 -9 -10 -21 -10 -11 0 -27 -7 -35 -15 -9 -8 -29 -15 -45 -15 -16
0 -29 -4 -29 -9 0 -5 -14 -13 -32 -16 -18 -4 -39 -11 -48 -16 -44 -23 -85 -39
-100 -39 -10 0 -31 -7 -46 -15 -16 -8 -41 -15 -56 -15 -15 0 -29 -4 -33 -9 -3
-6 -26 -13 -50 -17 -25 -3 -48 -10 -51 -15 -3 -5 -22 -9 -42 -9 -20 -1 -48 -7
-62 -15 -14 -8 -39 -14 -57 -15 -17 0 -44 -5 -60 -12 -15 -6 -55 -15 -88 -19
-33 -5 -112 -16 -175 -24 -63 -9 -198 -20 -300 -24 -196 -8 -605 -4 -630 7
-14 5 -98 18 -280 40 -36 5 -75 14 -87 20 -12 7 -36 12 -53 12 -17 0 -41 5
-53 12 -12 6 -42 15 -67 19 -56 9 -130 29 -152 40 -10 5 -30 9 -45 9 -16 0
-37 7 -47 15 -11 8 -32 15 -47 15 -15 0 -30 4 -33 9 -3 5 -22 12 -41 15 -19 4
-35 11 -35 15 0 5 -16 12 -36 16 -37 7 -44 9 -102 38 -19 9 -42 17 -53 17 -10
0 -19 4 -19 9 0 5 -13 12 -30 16 -16 4 -32 11 -35 16 -4 5 -14 9 -24 9 -10 0
-24 7 -31 15 -7 8 -21 15 -30 15 -10 0 -20 4 -22 8 -4 11 -127 72 -145 72 -7
0 -13 4 -13 10 0 5 -11 12 -24 16 -14 3 -27 12 -30 20 -3 8 -14 14 -24 14 -11
0 -25 6 -31 14 -7 8 -27 22 -46 31 -19 9 -35 20 -35 25 0 6 -7 10 -15 10 -9 0
-40 18 -70 40 -30 22 -58 40 -64 40 -5 0 -11 7 -15 15 -3 8 -12 15 -21 15 -8
0 -15 4 -15 9 0 5 -8 12 -17 15 -10 3 -38 24 -63 46 -25 22 -49 40 -53 40 -4
0 -18 11 -31 25 -13 14 -26 25 -30 25 -4 0 -17 10 -29 23 -12 12 -49 45 -82
72 -33 28 -69 60 -81 72 -12 13 -26 23 -33 23 -6 0 -11 5 -11 10 0 13 -117
130 -130 130 -5 0 -10 5 -10 11 0 7 -10 21 -23 33 -12 12 -44 48 -72 81 -27
33 -60 70 -72 82 -13 12 -23 25 -23 29 0 4 -11 17 -25 30 -14 13 -25 27 -25
31 0 4 -18 28 -40 53 -22 25 -43 53 -46 63 -3 9 -10 17 -15 17 -5 0 -9 7 -9
15 0 9 -7 18 -15 21 -8 4 -15 10 -15 15 0 5 -18 36 -40 68 -22 32 -40 64 -40
70 0 6 -4 11 -9 11 -5 0 -16 12 -24 28 -44 86 -60 112 -68 112 -5 0 -9 9 -9
20 0 11 -7 23 -15 26 -8 4 -15 12 -15 19 0 7 -18 48 -40 91 -22 43 -40 84 -40
92 0 7 -7 15 -15 18 -8 4 -15 17 -15 30 0 13 -4 24 -9 24 -5 0 -12 14 -16 30
-4 17 -11 30 -16 30 -5 0 -9 10 -9 23 0 13 -7 32 -15 43 -8 10 -15 29 -15 42
0 12 -4 22 -9 22 -5 0 -12 18 -16 40 -4 22 -11 40 -16 40 -5 0 -9 8 -9 18 0 9
-7 30 -15 46 -8 15 -15 38 -15 50 0 12 -5 27 -11 33 -6 6 -15 29 -20 50 -18
82 -34 142 -42 149 -4 4 -7 20 -7 36 0 16 -7 45 -15 65 -8 19 -15 48 -15 63 0
15 -7 47 -15 70 -8 23 -15 64 -15 90 0 25 -3 50 -8 54 -12 12 -32 217 -42 427
-11 223 0 542 25 719 8 63 19 142 24 175 4 33 13 73 19 88 7 16 12 43 12 60 1
18 7 43 15 57 8 14 14 42 15 62 0 20 4 39 9 43 6 3 13 26 17 50 3 25 10 48 15
51 5 3 9 17 9 32 0 15 7 40 15 56 8 15 15 37 15 47 0 11 4 27 9 37 22 39 40
84 46 112 4 16 11 30 16 30 5 0 9 13 9 29 0 16 7 34 15 41 8 7 15 23 15 36 0
13 5 24 10 24 6 0 10 5 10 11 0 6 6 25 14 42 8 18 17 39 20 47 3 8 10 22 15
30 5 8 17 33 27 55 11 22 21 42 24 45 11 11 40 73 40 86 0 8 4 14 9 14 5 0 14
14 20 30 5 17 15 30 20 30 6 0 11 7 11 16 0 8 11 30 25 48 14 18 25 40 25 48
0 9 7 18 15 22 8 3 15 12 15 21 0 8 4 15 10 15 5 0 12 11 16 25 3 14 9 25 13
25 4 0 17 18 30 40 12 22 26 40 32 40 5 0 9 7 9 15 0 8 4 15 10 15 5 0 12 11
16 25 3 14 10 25 15 25 5 0 9 4 9 10 0 8 12 23 75 91 8 9 15 19 15 23 0 4 12
20 27 36 16 15 39 42 53 60 14 18 37 46 52 62 16 16 28 33 28 38 0 6 6 10 13
10 8 0 20 11 27 25 7 14 19 25 27 25 7 0 13 4 13 10 0 11 89 100 101 100 5 0
9 7 9 15 0 8 7 15 15 15 8 0 15 7 15 15 0 8 4 15 9 15 6 0 33 23 62 50 29 28
55 50 59 50 4 0 33 25 65 55 32 30 67 57 77 61 10 3 18 10 18 15 0 5 7 9 15 9
7 0 18 6 22 13 11 18 89 77 101 77 6 0 12 3 14 8 2 4 37 29 78 57 41 27 77 52
80 56 3 3 15 9 28 13 12 4 22 11 22 14 0 4 20 16 45 27 25 11 45 23 45 28 0 4
6 7 14 7 8 0 21 6 28 13 11 10 211 112 258 131 8 3 22 10 30 15 15 9 33 17
105 46 22 9 53 23 68 31 16 8 39 14 52 14 13 0 27 5 30 10 3 6 14 10 23 10 9
0 29 6 44 14 15 8 40 17 57 21 17 4 33 11 36 16 4 5 21 9 39 9 18 0 41 7 52
15 10 8 33 15 51 15 17 0 34 4 37 9 3 4 29 11 58 15 29 4 57 11 63 16 5 4 30
10 55 12 25 3 66 10 93 16 26 7 68 17 95 24 44 11 116 19 312 37 119 11 469
11 625 0z m-2859 -64 c10 -8 29 -15 42 -15 18 0 22 -6 22 -29 0 -16 -7 -36
-15 -45 -8 -8 -15 -19 -15 -25 0 -6 -7 -11 -15 -11 -8 0 -15 -7 -15 -15 0 -18
-21 -20 -38 -3 -14 14 -101 15 -110 1 -4 -5 -15 -12 -24 -16 -27 -10 -24 -73
3 -87 13 -7 25 -8 32 -2 7 5 32 13 57 17 25 4 48 12 51 17 4 6 51 11 106 11
l100 2 34 -34 c48 -48 62 -79 63 -136 1 -76 -40 -143 -127 -212 -57 -45 -185
-53 -262 -16 -53 25 -63 45 -37 71 11 11 28 32 37 46 17 26 65 37 65 16 0 -6
26 -10 59 -10 53 0 63 3 90 31 34 33 38 54 17 82 -17 22 -103 24 -132 2 -10
-8 -33 -15 -51 -15 -17 0 -35 -4 -38 -10 -3 -5 -33 -10 -65 -10 -32 0 -62 5
-65 10 -3 6 -13 10 -21 10 -16 0 -54 35 -54 49 0 5 -5 11 -12 13 -21 7 -15
140 7 182 11 20 23 36 27 36 5 0 8 7 8 15 0 8 5 15 11 15 7 0 22 11 35 25 13
14 31 25 41 25 10 0 27 7 37 15 12 9 42 15 76 15 34 0 64 -6 76 -15z m5472
-145 c17 -16 33 -30 36 -30 3 0 19 -13 36 -30 17 -16 35 -30 41 -30 6 0 34
-24 64 -52 29 -29 65 -61 79 -71 21 -14 25 -24 20 -40 -7 -24 -63 -87 -77 -87
-4 0 -22 13 -40 30 -18 16 -35 30 -39 30 -5 0 -26 18 -48 40 -22 22 -43 40
-46 40 -3 0 -12 7 -20 15 -22 22 -40 19 -69 -12 -25 -28 -35 -83 -14 -83 6 0
16 -6 23 -12 7 -7 27 -24 45 -38 81 -62 87 -88 28 -141 -33 -30 -47 -36 -47
-19 0 6 -8 14 -17 17 -10 4 -28 17 -40 30 -12 13 -27 23 -33 23 -5 0 -10 4
-10 8 0 5 -14 18 -31 31 -29 22 -31 22 -50 5 -10 -9 -19 -22 -19 -27 0 -5 -10
-19 -23 -31 -12 -11 -32 -35 -45 -53 -33 -47 -56 -50 -94 -14 -18 17 -36 31
-40 31 -4 0 -9 9 -13 19 -4 13 3 29 23 49 16 16 44 51 62 76 18 25 37 46 42
46 4 0 8 5 8 10 0 6 10 21 23 33 12 12 38 42 56 65 35 45 46 58 106 127 19 22
35 45 35 52 0 6 6 14 13 16 27 12 47 6 75 -23z m-5914 -235 c8 -8 20 -15 26
-15 14 0 58 -50 83 -94 13 -22 17 -47 15 -91 -3 -57 -2 -60 22 -63 14 -2 29
-8 35 -13 5 -5 19 -9 32 -9 12 0 52 -10 88 -21 49 -17 65 -26 65 -40 0 -11 -3
-19 -8 -19 -4 0 -25 -16 -47 -35 -45 -39 -75 -43 -140 -20 -22 8 -49 15 -61
15 -11 0 -29 6 -39 14 -21 15 -40 11 -67 -12 -28 -24 -22 -39 42 -103 49 -49
59 -65 54 -82 -8 -26 -70 -87 -88 -87 -7 0 -42 33 -77 72 -35 40 -112 121
-171 181 -60 60 -108 111 -108 113 0 8 -40 44 -50 44 -5 0 -10 14 -10 32 0 23
8 39 27 55 15 13 50 45 79 71 116 106 140 119 221 121 43 1 66 -4 77 -14z
m6412 -210 c13 -14 27 -25 33 -25 26 0 22 -100 -6 -128 -7 -7 -13 -22 -13 -33
0 -10 -4 -19 -10 -19 -5 0 -12 -16 -16 -35 -3 -19 -10 -35 -15 -35 -5 0 -9 -9
-9 -21 0 -11 -7 -27 -15 -35 -8 -9 -15 -24 -15 -35 0 -10 -4 -19 -10 -19 -5 0
-10 -7 -10 -16 0 -19 -41 -107 -52 -112 -5 -2 -8 -15 -8 -29 0 -13 -7 -31 -15
-39 -8 -9 -15 -24 -15 -35 0 -10 -4 -19 -10 -19 -5 0 -12 -11 -16 -25 -7 -28
-22 -33 -30 -10 -4 8 -10 15 -14 15 -16 0 -70 62 -70 80 0 10 7 31 15 46 24
47 18 72 -25 115 -22 22 -40 44 -40 49 0 6 -5 10 -10 10 -6 0 -22 12 -36 28
-28 29 -48 30 -101 6 -38 -17 -56 -11 -99 35 -35 38 -44 71 -19 71 8 0 15 4
15 10 0 5 12 12 28 16 27 6 83 28 112 43 9 5 30 12 48 16 18 3 32 11 32 16 0
5 10 9 23 9 12 0 31 7 41 15 11 8 30 15 43 15 13 0 23 5 23 10 0 6 7 10 16 10
16 0 65 19 117 46 16 8 37 14 48 14 10 0 19 5 19 10 0 19 43 10 66 -15z
m-6932 -190 c15 -14 30 -25 34 -25 4 0 12 -12 19 -26 9 -20 9 -26 -3 -31 -8
-3 -14 -10 -14 -15 0 -6 -10 -20 -23 -32 -13 -11 -39 -41 -58 -66 -18 -25 -37
-46 -41 -48 -5 -2 -8 -10 -8 -17 0 -7 -8 -16 -17 -19 -14 -6 -11 -12 18 -41
34 -35 69 -46 69 -22 0 6 14 26 30 44 17 18 30 35 30 38 0 3 11 16 25 29 14
13 25 28 25 35 0 24 51 10 85 -23 19 -19 35 -37 35 -40 0 -2 -13 -20 -30 -38
-16 -18 -30 -36 -30 -41 0 -4 -11 -18 -25 -31 -14 -13 -25 -28 -25 -35 0 -6
-7 -11 -15 -11 -21 0 -19 -32 4 -52 29 -25 71 -51 74 -47 31 43 79 102 105
129 18 19 40 47 47 61 8 15 21 29 29 32 20 8 56 -3 56 -17 0 -6 10 -16 23 -21
22 -10 37 -55 18 -55 -6 0 -11 -4 -11 -10 0 -5 -8 -19 -17 -29 -29 -32 -43
-50 -43 -55 0 -3 -12 -19 -27 -35 -16 -16 -59 -68 -96 -115 -38 -47 -73 -86
-78 -86 -5 0 -12 7 -15 15 -4 8 -12 15 -20 15 -8 0 -14 4 -14 9 0 5 -8 12 -18
15 -10 3 -37 24 -61 46 -23 22 -46 40 -51 40 -5 0 -10 3 -12 8 -1 4 -23 23
-48 42 -25 19 -49 40 -55 46 -5 6 -31 26 -57 44 -27 18 -48 37 -48 42 0 4 -5
8 -11 8 -10 0 -69 60 -69 70 0 4 16 24 35 46 19 21 38 47 41 57 3 9 10 17 15
17 5 0 9 5 9 10 0 6 17 27 38 48 21 21 48 54 61 75 12 20 27 37 32 37 5 0 9 7
9 15 0 8 7 15 15 15 8 0 15 5 15 10 0 17 16 11 44 -15z m7246 -175 c0 -5 7
-10 15 -10 8 0 15 -6 15 -14 0 -7 7 -19 15 -26 8 -7 15 -28 15 -46 0 -24 -5
-34 -15 -34 -8 0 -15 -4 -15 -10 0 -5 -6 -10 -12 -10 -7 0 -27 -14 -45 -30
-18 -17 -37 -30 -42 -30 -6 0 -11 -4 -11 -9 0 -5 -17 -20 -37 -32 -21 -13 -39
-27 -41 -31 -2 -4 -10 -8 -18 -8 -8 0 -14 -6 -14 -14 0 -7 -8 -16 -17 -20 -21
-7 -50 -25 -76 -48 -14 -12 -18 -24 -13 -42 3 -14 11 -26 16 -26 6 0 10 -7 10
-15 0 -9 7 -18 15 -21 8 -4 15 -12 15 -20 0 -8 4 -14 9 -14 5 0 12 -8 16 -19
3 -10 16 -30 29 -44 33 -35 38 -65 16 -85 -67 -61 -79 -59 -150 25 -5 7 -10
17 -10 23 0 6 -7 13 -15 16 -8 4 -15 12 -15 20 0 8 -4 14 -9 14 -5 0 -12 8
-15 18 -4 10 -20 34 -37 53 -17 19 -37 46 -45 62 -8 15 -19 27 -24 27 -6 0
-10 12 -10 28 0 19 9 33 30 47 16 11 30 23 30 28 0 4 5 7 10 7 6 0 19 8 29 18
36 32 50 42 60 42 5 0 11 4 13 8 2 4 20 18 41 31 20 12 37 27 37 32 0 5 6 9
14 9 8 0 16 7 20 15 3 8 11 15 18 15 7 0 25 10 39 23 32 28 59 46 82 53 9 4
17 13 17 20 0 8 7 14 15 14 8 0 15 5 15 10 0 6 7 10 15 10 8 0 15 -4 15 -10z
m-7609 -282 c10 -13 18 -29 19 -36 0 -7 7 -15 15 -18 8 -4 15 -12 15 -20 0 -8
7 -14 15 -14 8 0 15 -6 15 -14 0 -8 4 -16 8 -18 4 -1 18 -20 31 -40 12 -21 27
-38 32 -38 5 0 9 -5 9 -10 0 -6 5 -16 10 -23 6 -7 24 -27 40 -46 17 -19 30
-41 30 -48 0 -7 4 -13 8 -13 5 0 23 -21 41 -46 18 -25 44 -57 57 -71 33 -35
39 -61 20 -82 -9 -10 -16 -22 -16 -28 0 -6 -7 -13 -15 -17 -8 -3 -15 -11 -15
-18 0 -20 -39 -41 -53 -30 -7 6 -48 13 -92 17 -44 4 -84 11 -90 15 -5 4 -47
11 -93 15 -45 4 -85 11 -88 16 -3 5 -31 9 -62 9 -31 1 -86 9 -122 19 -53 15
-64 22 -62 37 4 28 35 87 52 101 17 14 72 17 84 6 7 -8 108 -25 241 -41 33 -4
70 -13 82 -20 26 -15 63 -16 63 -2 0 6 -7 10 -15 10 -8 0 -15 5 -15 11 0 7
-11 22 -24 34 -14 13 -42 45 -63 72 -102 133 -139 180 -159 201 -20 22 -20 25
-5 58 8 19 19 34 23 34 4 0 8 5 8 12 0 14 30 48 42 48 6 0 18 -10 29 -22z
m7988 -258 l32 -60 -25 -33 c-15 -19 -26 -39 -26 -46 0 -6 -7 -14 -15 -17 -8
-4 -15 -14 -15 -24 0 -10 -7 -23 -15 -30 -8 -7 -15 -19 -15 -26 0 -8 -4 -14
-9 -14 -5 0 -13 -10 -17 -22 -3 -12 -15 -31 -25 -42 -11 -11 -16 -23 -12 -27
5 -5 67 -10 138 -12 181 -6 215 -18 231 -81 3 -14 10 -26 15 -26 5 0 9 -7 9
-15 0 -8 -7 -15 -15 -15 -8 0 -15 -4 -15 -8 0 -5 -25 -19 -55 -33 -30 -13 -55
-27 -55 -31 0 -5 -8 -8 -19 -8 -10 0 -24 -7 -31 -15 -7 -8 -21 -15 -32 -15
-10 0 -21 -7 -24 -15 -4 -8 -11 -15 -17 -15 -11 0 -139 -60 -147 -69 -3 -3
-30 -18 -60 -33 -62 -31 -110 -37 -110 -13 0 9 -7 27 -16 40 -21 32 -11 73 20
85 13 5 27 14 31 19 3 6 15 11 26 11 10 0 19 4 19 9 0 5 12 12 27 16 15 3 30
10 33 13 10 14 72 42 91 42 34 0 20 17 -23 28 -24 6 -74 13 -111 15 -51 4 -72
9 -82 23 -19 25 -19 68 0 84 8 7 15 19 15 26 0 8 4 14 10 14 5 0 12 11 16 25
3 14 10 25 15 25 5 0 9 6 9 14 0 8 7 16 15 20 17 6 21 46 5 46 -5 0 -10 -4
-10 -9 0 -5 -18 -18 -39 -29 -22 -12 -50 -26 -63 -33 -13 -7 -30 -16 -38 -20
-8 -5 -35 -19 -60 -31 -25 -13 -46 -26 -48 -30 -2 -5 -14 -8 -28 -8 -17 0 -25
7 -30 25 -3 14 -10 25 -15 25 -4 0 -11 16 -15 36 -6 32 -3 39 22 60 16 13 37
23 46 24 9 0 18 3 20 8 4 10 67 42 83 42 7 0 18 7 25 15 7 8 21 15 31 15 11 0
19 4 19 9 0 5 14 12 30 16 17 4 30 11 30 16 0 5 11 11 25 15 14 3 25 10 25 15
0 5 8 9 19 9 10 0 24 7 31 15 7 8 19 15 26 15 7 0 33 11 56 25 24 13 46 24 49
25 3 0 21 -27 38 -60z m-8291 -406 c25 -13 51 -24 58 -24 8 0 14 -4 14 -10 0
-5 5 -10 10 -10 11 0 123 -48 173 -75 16 -8 37 -15 48 -15 10 0 19 -4 19 -9 0
-5 14 -12 30 -16 17 -4 30 -11 30 -16 0 -5 9 -9 20 -9 27 0 60 -30 60 -54 0
-11 -8 -37 -17 -57 -23 -49 -54 -51 -138 -9 -33 16 -68 30 -77 30 -10 0 -18 4
-18 9 0 5 -13 12 -30 16 -16 4 -30 11 -30 16 0 5 -11 9 -24 9 -13 0 -26 7 -30
15 -3 8 -17 15 -31 15 -14 0 -25 4 -25 10 0 5 -12 13 -27 16 -15 4 -38 13 -52
20 -14 8 -32 14 -38 14 -7 0 -13 5 -13 10 0 6 -8 10 -18 10 -40 0 -55 48 -27
86 8 10 15 27 15 36 0 34 45 31 118 -8z m-173 -284 c3 -5 16 -10 28 -10 12 0
35 -7 51 -15 15 -8 41 -15 57 -15 16 0 29 -4 29 -10 0 -5 18 -13 40 -16 22 -4
40 -10 40 -14 0 -4 20 -11 45 -14 24 -4 47 -11 50 -17 4 -5 17 -9 29 -9 13 0
37 -7 52 -15 16 -8 38 -15 48 -15 26 0 56 -29 56 -53 0 -32 -33 -95 -55 -105
-11 -6 -47 -18 -80 -27 -33 -10 -64 -21 -70 -25 -5 -5 -27 -11 -48 -15 -20 -4
-40 -11 -43 -16 -3 -5 -18 -9 -33 -9 -15 0 -36 -7 -47 -15 -10 -8 -34 -15 -51
-15 -18 0 -33 -3 -33 -8 0 -10 52 -32 94 -39 20 -3 36 -9 36 -14 0 -5 18 -12
40 -15 22 -4 43 -11 46 -15 3 -5 15 -9 28 -9 13 0 37 -7 55 -16 32 -16 32 -17
26 -66 -7 -50 -29 -88 -51 -88 -6 0 -25 7 -40 15 -16 8 -39 15 -51 15 -12 0
-25 5 -28 10 -3 6 -16 10 -29 10 -12 0 -31 7 -42 15 -10 8 -28 15 -39 15 -11
0 -33 7 -49 15 -15 8 -39 15 -52 15 -12 0 -25 4 -28 9 -4 5 -24 12 -46 16 -22
4 -40 11 -40 16 0 5 -11 9 -25 9 -13 0 -41 8 -61 17 -36 18 -36 18 -30 68 3
27 10 51 16 53 5 2 10 10 10 18 0 8 10 14 24 14 13 0 29 7 36 15 7 8 23 15 35
15 13 0 36 7 51 15 16 8 39 15 51 15 12 0 24 4 27 9 4 5 24 12 46 16 22 4 42
11 46 16 3 5 17 9 32 9 54 1 82 49 29 50 -12 1 -33 7 -47 15 -14 8 -37 14 -52
15 -16 0 -28 5 -28 10 0 6 -10 10 -22 11 -13 0 -48 8 -78 18 -58 19 -70 37
-52 75 6 11 13 33 16 49 6 23 11 27 41 27 18 0 37 -4 40 -10z m8805 -25 c0 -8
5 -15 10 -15 6 0 10 -12 10 -27 1 -16 7 -39 15 -53 8 -14 14 -37 15 -52 0 -16
4 -28 9 -28 5 0 12 -20 15 -45 4 -25 11 -45 17 -45 5 0 9 -10 9 -22 0 -13 7
-36 15 -52 19 -36 19 -66 1 -66 -8 0 -16 -4 -18 -10 -1 -5 -24 -13 -50 -16
-45 -6 -48 -5 -59 22 -6 16 -15 37 -20 46 -5 10 -9 28 -9 41 0 13 -7 32 -15
43 -8 10 -15 28 -15 40 0 19 -27 84 -34 84 -2 0 -25 -9 -51 -21 -43 -19 -46
-22 -31 -38 9 -10 16 -28 16 -40 0 -12 7 -29 15 -37 8 -9 15 -28 15 -44 0 -16
5 -32 10 -35 6 -3 10 -17 10 -30 0 -20 -7 -25 -35 -31 -19 -3 -38 -10 -41 -15
-3 -5 -14 -9 -24 -9 -21 0 -40 28 -40 59 0 12 -4 21 -9 21 -5 0 -12 20 -15 45
-4 25 -11 45 -16 45 -5 0 -10 10 -12 23 -3 19 -8 22 -38 19 -19 -1 -36 -7 -38
-12 -2 -6 -10 -10 -18 -10 -18 0 -18 -37 1 -74 8 -15 15 -36 15 -46 0 -10 7
-31 15 -46 8 -16 15 -39 15 -51 0 -12 5 -25 10 -28 6 -3 10 -16 10 -28 0 -30
-55 -60 -101 -55 -29 2 -34 7 -37 31 -2 15 -8 27 -13 27 -5 0 -9 10 -9 23 0
12 -7 35 -15 51 -8 15 -15 38 -15 50 0 11 -7 30 -15 40 -8 11 -15 31 -15 45 0
14 -7 35 -15 45 -8 11 -15 29 -15 41 0 12 -5 26 -11 32 -18 18 11 51 50 58 20
4 41 10 46 15 6 4 27 10 48 14 20 4 37 11 37 15 0 5 15 11 33 14 58 10 127 31
127 39 0 4 18 11 40 14 22 4 40 10 40 15 0 5 13 9 28 9 16 0 37 7 48 15 26 20
104 20 104 0z m194 -638 c9 -23 16 -62 16 -85 0 -24 7 -59 15 -79 23 -55 19
-123 -10 -174 -14 -24 -28 -51 -32 -59 -10 -22 -46 -49 -64 -50 -8 0 -24 -7
-35 -15 -43 -32 -138 -11 -191 43 -12 12 -25 22 -28 22 -5 0 -50 -37 -81 -67
-7 -7 -15 -13 -19 -13 -3 0 -16 -11 -29 -25 -13 -14 -28 -25 -35 -25 -6 0 -11
-7 -11 -15 0 -8 -7 -15 -16 -15 -20 0 -44 60 -44 112 0 46 4 52 70 98 67 47
100 85 100 116 0 42 -13 58 -36 46 -25 -13 -156 -25 -170 -15 -15 11 -24 104
-13 125 7 14 22 18 59 18 27 0 51 4 54 9 4 5 40 12 81 16 42 4 78 11 81 16 3
5 24 9 46 9 23 0 64 7 92 15 43 12 126 28 172 34 6 0 19 -18 28 -42z m-9094
-55 c47 -6 101 -15 120 -21 19 -6 52 -11 72 -11 21 0 38 -4 38 -9 0 -5 12 -12
28 -16 15 -3 52 -33 83 -65 51 -53 56 -62 62 -115 12 -113 -10 -202 -60 -251
-13 -12 -23 -26 -23 -33 0 -6 -7 -11 -15 -11 -8 0 -15 -4 -15 -9 0 -5 -13 -12
-30 -16 -16 -4 -32 -11 -35 -16 -8 -12 -160 -12 -183 0 -18 10 -145 30 -244
38 -50 4 -57 7 -63 30 -8 35 5 114 21 120 15 5 226 -19 361 -42 48 -9 98 7
125 40 25 29 25 138 0 163 -28 28 -97 52 -151 52 -26 0 -51 3 -55 8 -4 4 -44
12 -89 19 -45 6 -98 15 -117 20 l-35 9 3 55 c4 91 -15 86 202 61z m2960 -4820
c0 -5 28 -16 63 -26 34 -9 75 -23 90 -31 16 -8 38 -15 49 -15 10 0 26 -7 34
-15 9 -8 29 -15 45 -15 27 0 29 -3 29 -39 0 -61 -7 -71 -51 -71 -21 0 -39 4
-39 9 0 5 -17 12 -37 16 -21 4 -42 10 -48 14 -15 12 -70 21 -82 13 -6 -4 -14
-28 -18 -53 -7 -45 -6 -47 22 -52 25 -4 57 -15 118 -38 11 -4 28 -10 39 -13
15 -5 18 -13 13 -46 -6 -50 -32 -78 -57 -62 -10 6 -34 14 -54 17 -20 4 -39 11
-42 16 -3 5 -16 9 -28 9 -13 0 -29 7 -36 15 -14 17 -30 11 -30 -11 0 -9 -7
-22 -15 -30 -8 -9 -15 -29 -15 -45 0 -26 3 -29 30 -29 17 0 30 -4 30 -10 0 -5
8 -10 18 -10 9 -1 35 -9 57 -20 22 -11 50 -19 63 -20 18 0 22 -5 22 -35 0 -64
-58 -97 -106 -60 -10 8 -29 15 -41 15 -12 0 -24 4 -27 9 -4 5 -24 12 -46 16
-22 4 -42 11 -46 16 -3 5 -15 9 -26 9 -12 0 -39 8 -59 18 -42 19 -51 50 -24
86 8 11 15 30 15 43 0 13 4 23 10 23 5 0 13 18 16 40 4 22 11 43 15 46 5 3 9
13 9 22 0 9 7 30 15 46 8 15 15 38 15 50 1 11 7 32 15 46 8 14 14 37 15 53 0
15 4 27 9 27 5 0 12 12 16 27 8 34 55 72 55 45z m2958 -45 c2 -18 -2 -29 -12
-33 -9 -3 -16 -16 -16 -28 -1 -11 -7 -32 -15 -46 -8 -14 -14 -40 -15 -57 0
-18 -4 -33 -10 -33 -5 0 -10 -4 -10 -10 0 -5 9 -10 20 -10 11 0 20 5 20 10 0
6 20 10 45 10 25 0 45 -4 45 -10 0 -5 9 -10 20 -10 31 0 84 -61 98 -113 15
-57 16 -104 2 -112 -5 -3 -10 -15 -10 -26 0 -24 -55 -77 -87 -85 -13 -4 -23
-10 -23 -15 0 -15 -105 -10 -138 7 -17 8 -48 35 -69 58 -32 37 -41 56 -52 119
-10 57 -11 86 -2 126 6 29 11 68 11 86 0 19 5 35 10 35 6 0 10 7 10 16 0 12
36 101 45 112 6 7 111 41 120 38 6 -1 11 -15 13 -29z m-306 -99 c3 -7 1 -40
-4 -73 -4 -33 -12 -94 -17 -135 -5 -41 -14 -91 -20 -110 -6 -19 -11 -63 -11
-97 0 -35 -4 -63 -10 -63 -5 0 -10 -15 -10 -32 0 -70 -7 -78 -65 -78 -42 0
-55 4 -59 18 -9 26 30 339 50 401 7 24 7 24 -47 17 -30 -4 -58 -11 -63 -17 -6
-5 -29 -9 -52 -9 -45 0 -54 12 -54 76 0 39 33 64 87 64 21 1 49 7 63 15 14 8
43 15 65 15 22 0 47 5 55 10 22 14 87 12 92 -2z m-2098 -23 c11 -8 28 -15 38
-15 10 0 18 -4 18 -10 0 -5 11 -12 25 -16 14 -3 25 -12 25 -20 0 -19 19 -18
26 1 7 17 74 21 102 5 16 -9 127 -23 304 -38 42 -4 79 -9 81 -12 7 -7 10 -29
8 -74 l-1 -38 -72 5 c-40 3 -83 8 -94 12 -24 8 -23 12 -46 -170 -7 -55 -16
-104 -19 -110 -4 -5 -10 -45 -14 -87 l-7 -78 -53 0 c-83 0 -101 29 -70 115 8
22 15 64 15 93 0 29 7 84 16 122 8 38 14 83 12 101 -3 30 -7 34 -53 46 -27 7
-65 13 -82 13 -19 0 -33 5 -34 13 0 6 -5 2 -11 -10 -15 -31 -32 -29 -88 12
-58 42 -126 49 -148 15 -7 -12 -8 -20 -2 -20 5 0 10 -4 10 -10 0 -10 67 -80
77 -80 3 0 25 -19 48 -43 46 -48 58 -89 48 -163 -5 -39 -28 -72 -77 -112 -18
-14 -172 -17 -181 -3 -3 5 -18 12 -34 16 -16 3 -45 21 -65 38 -29 26 -36 40
-36 69 0 20 7 43 15 52 8 8 15 19 15 25 0 6 7 11 15 11 8 0 15 -4 15 -9 0 -11
50 -61 78 -78 11 -6 36 -15 56 -19 30 -5 41 -3 56 14 19 20 19 22 2 51 -9 17
-20 31 -24 31 -3 0 -20 14 -36 30 -17 17 -33 30 -36 30 -9 0 -46 39 -46 49 0
5 -6 11 -14 14 -18 7 -28 75 -17 130 9 49 26 71 75 98 40 22 153 24 180 4z
m1634 -83 c2 -7 9 -12 14 -12 18 0 69 -63 75 -92 3 -16 9 -28 14 -28 12 0 11
-147 -1 -155 -5 -3 -10 -16 -10 -28 0 -12 -7 -35 -15 -51 -8 -15 -15 -37 -15
-47 0 -11 -4 -19 -10 -19 -5 0 -12 -11 -16 -24 -3 -14 -12 -27 -20 -30 -8 -3
-14 -11 -14 -18 0 -7 -11 -26 -25 -41 -19 -20 -35 -27 -63 -27 -21 0 -44 -6
-50 -12 -10 -10 -15 -10 -22 2 -14 22 -12 46 5 60 8 7 15 19 15 26 0 8 5 14
10 14 6 0 10 6 10 14 0 8 6 21 13 28 11 11 47 75 47 83 0 2 -28 5 -62 7 -35 3
-64 10 -66 16 -2 7 -8 12 -13 12 -5 0 -17 8 -26 18 -34 36 -53 84 -53 135 0
47 26 126 42 127 4 0 19 11 33 24 15 14 36 27 48 30 41 8 151 0 155 -12z
m-448 -22 c18 -11 28 -113 36 -381 l6 -187 -54 -4 c-87 -5 -84 -12 -90 288 -3
143 -3 264 -1 271 8 20 78 29 103 13z m-530 -444 c0 -8 5 -16 11 -18 15 -5 14
-54 -1 -84 -11 -19 -21 -24 -52 -24 -44 0 -61 13 -72 53 -4 19 -1 37 11 57 15
26 23 30 60 30 30 0 43 -4 43 -14z"/>
<path d="M4834 9626 c-3 -7 -4 -38 -2 -67 l3 -54 69 1 c55 1 72 5 82 19 19 25
18 80 -2 99 -20 21 -142 23 -150 2z"/>
<path d="M5527 9480 c-20 -39 -37 -72 -37 -74 0 -2 21 -6 48 -9 26 -3 56 -9
66 -13 16 -6 18 -4 13 17 -42 169 -43 170 -90 79z"/>
<path d="M6142 9492 c-7 -20 -17 -53 -21 -72 -5 -19 -14 -48 -20 -63 -6 -16
-11 -41 -11 -57 0 -16 -4 -32 -10 -35 -5 -3 -10 -24 -10 -46 0 -38 1 -39 34
-39 18 0 50 -7 69 -15 20 -8 51 -15 68 -15 35 0 119 48 119 68 0 6 4 12 10 12
5 0 12 16 16 35 3 19 10 38 15 41 12 7 11 64 -1 64 -5 0 -10 11 -10 25 0 22
-25 53 -74 93 -8 6 -28 12 -44 12 -15 0 -32 4 -37 9 -6 5 -26 11 -45 15 -34 6
-36 4 -48 -32z"/>
<path d="M7118 9144 c-10 -3 -18 -10 -18 -15 0 -5 -6 -9 -14 -9 -14 0 -66 -61
-66 -78 0 -6 -5 -12 -11 -14 -16 -5 -17 -140 -1 -146 7 -2 12 -8 12 -14 0 -5
13 -23 29 -38 33 -33 108 -54 155 -44 35 7 86 34 86 46 0 4 11 18 24 32 43 48
43 172 -1 213 -12 12 -23 26 -23 30 0 23 -126 50 -172 37z"/>
<path d="M4713 8890 c-13 -5 -64 -14 -115 -19 -170 -19 -241 -30 -252 -41 -5
-5 -25 -10 -43 -10 -19 0 -50 -7 -70 -15 -19 -8 -50 -15 -69 -15 -18 0 -36 -4
-39 -10 -3 -5 -28 -12 -55 -16 -28 -4 -50 -10 -50 -14 0 -4 -19 -10 -42 -13
-24 -3 -44 -11 -46 -16 -2 -6 -18 -11 -36 -11 -18 0 -36 -3 -39 -6 -10 -10
-120 -54 -134 -54 -7 0 -13 -4 -13 -9 0 -5 -18 -11 -40 -15 -22 -3 -40 -11
-40 -16 0 -6 -11 -10 -25 -10 -14 0 -25 -4 -25 -10 0 -5 -5 -10 -11 -10 -11 0
-71 -24 -99 -40 -8 -5 -49 -26 -90 -47 -41 -21 -76 -41 -78 -45 -2 -5 -12 -8
-22 -8 -9 0 -23 -7 -30 -15 -7 -8 -21 -15 -31 -15 -11 0 -19 -5 -19 -10 0 -6
-10 -15 -22 -20 -27 -11 -61 -32 -68 -41 -3 -4 -15 -9 -27 -13 -13 -4 -23 -12
-23 -17 0 -5 -7 -9 -15 -9 -8 0 -15 -4 -15 -10 0 -5 -11 -12 -25 -16 -14 -3
-25 -10 -25 -14 0 -5 -17 -19 -37 -31 -21 -13 -39 -27 -41 -31 -2 -4 -10 -8
-18 -8 -8 0 -14 -3 -14 -7 0 -5 -18 -19 -40 -33 -22 -13 -40 -28 -40 -32 0 -4
-7 -8 -15 -8 -8 0 -15 -7 -15 -15 0 -8 -7 -15 -15 -15 -8 0 -15 -4 -15 -9 0
-5 -8 -12 -19 -16 -10 -3 -49 -35 -87 -70 -37 -36 -70 -65 -73 -65 -7 0 -311
-308 -311 -315 0 -3 -11 -16 -25 -29 -14 -13 -25 -26 -25 -30 0 -8 -15 -27
-58 -72 -18 -20 -45 -54 -60 -77 -15 -22 -37 -52 -49 -65 -12 -13 -25 -33 -28
-43 -4 -11 -11 -19 -16 -19 -5 0 -9 -7 -9 -15 0 -7 -6 -18 -12 -22 -15 -9 -36
-41 -44 -65 -4 -10 -10 -18 -15 -18 -5 0 -9 -6 -9 -14 0 -8 -6 -21 -13 -28
-14 -16 -34 -47 -44 -68 -4 -8 -13 -21 -20 -28 -7 -7 -13 -22 -13 -33 0 -10
-4 -19 -10 -19 -5 0 -10 -6 -10 -14 0 -8 -6 -21 -12 -28 -7 -7 -23 -33 -36
-58 -12 -25 -27 -52 -31 -60 -23 -40 -61 -127 -61 -138 0 -8 -7 -20 -15 -28
-8 -9 -15 -24 -15 -35 0 -10 -4 -19 -9 -19 -5 0 -11 -18 -15 -40 -3 -22 -10
-40 -15 -40 -5 0 -11 -10 -14 -22 -7 -33 -28 -89 -43 -120 -8 -14 -14 -38 -14
-52 0 -14 -4 -26 -10 -26 -5 0 -10 -12 -10 -26 0 -14 -5 -35 -12 -47 -6 -12
-15 -40 -19 -62 -11 -59 -30 -127 -41 -149 -5 -10 -12 -43 -15 -73 -3 -29 -10
-56 -14 -59 -5 -3 -9 -24 -9 -47 0 -23 -5 -60 -11 -82 -6 -22 -15 -78 -20
-125 -5 -47 -13 -112 -18 -145 -13 -84 -13 -635 0 -715 6 -36 15 -103 19 -150
10 -97 27 -201 41 -246 5 -17 9 -41 9 -55 0 -13 6 -44 14 -69 8 -25 22 -72 31
-105 9 -33 23 -80 31 -105 8 -25 14 -55 14 -67 0 -13 4 -23 9 -23 5 0 11 -18
15 -40 3 -22 11 -40 16 -40 6 0 10 -11 10 -24 0 -14 14 -54 30 -89 17 -36 30
-70 30 -76 0 -5 11 -31 25 -57 14 -26 25 -55 25 -65 0 -11 5 -19 10 -19 6 0
10 -6 10 -12 0 -7 17 -45 38 -85 20 -40 48 -94 62 -120 14 -26 27 -50 30 -53
3 -3 15 -25 28 -50 28 -55 43 -80 59 -98 7 -7 13 -20 13 -28 0 -8 5 -14 10
-14 6 0 10 -6 10 -14 0 -8 7 -16 15 -20 8 -3 15 -15 15 -26 0 -11 4 -20 9 -20
5 0 20 -17 32 -37 13 -21 27 -39 31 -41 4 -2 8 -10 8 -18 0 -8 6 -14 14 -14 8
0 16 -10 20 -23 3 -12 14 -32 26 -44 11 -12 20 -27 20 -33 0 -5 7 -10 15 -10
8 0 15 -4 15 -10 0 -5 8 -19 18 -29 29 -33 42 -50 42 -56 0 -17 458 -475 475
-475 6 0 23 -13 56 -43 10 -9 24 -17 29 -17 6 0 10 -7 10 -15 0 -8 5 -15 10
-15 6 0 21 -9 33 -20 12 -12 32 -23 44 -26 13 -4 23 -12 23 -20 0 -8 6 -14 14
-14 8 0 16 -4 18 -8 2 -4 20 -18 41 -31 20 -12 37 -27 37 -32 0 -5 9 -9 20 -9
11 0 23 -7 26 -15 4 -8 12 -15 20 -15 8 0 14 -4 14 -9 0 -5 11 -12 25 -15 14
-4 25 -11 25 -16 0 -6 9 -10 20 -10 11 0 20 -4 20 -9 0 -5 21 -20 48 -33 26
-13 49 -25 52 -28 3 -3 27 -16 53 -30 26 -14 80 -42 120 -62 40 -21 78 -38 85
-38 6 0 12 -4 12 -10 0 -5 11 -10 24 -10 13 0 29 -7 36 -15 7 -8 21 -15 31
-15 10 0 21 -4 24 -10 3 -5 13 -10 21 -10 9 0 45 -13 81 -30 35 -16 75 -30 89
-30 13 0 24 -4 24 -10 0 -5 18 -13 40 -16 22 -4 40 -10 40 -15 0 -5 10 -9 23
-9 12 0 42 -6 67 -14 25 -8 72 -22 105 -31 33 -9 80 -23 105 -31 25 -8 56 -14
69 -14 14 0 38 -4 55 -9 44 -14 147 -31 246 -41 47 -5 110 -14 140 -19 72 -12
659 -12 730 0 30 5 96 13 145 18 50 4 106 13 125 20 19 6 54 11 77 11 23 0 45
5 48 10 3 6 21 10 39 10 31 0 100 17 171 42 17 5 48 13 70 17 22 4 50 13 62
19 12 7 33 12 47 12 14 0 26 5 26 10 0 6 13 10 28 10 16 0 37 7 48 15 10 8 29
15 42 15 12 0 30 4 40 9 61 33 105 51 122 51 11 0 20 5 20 10 0 6 11 10 24 10
13 0 29 7 36 15 7 8 20 15 29 15 9 0 21 4 26 9 6 5 35 19 65 31 30 12 57 25
60 28 5 7 111 65 168 91 17 8 32 19 32 23 0 4 9 8 20 8 11 0 23 7 26 15 4 8
12 15 20 15 8 0 14 5 14 10 0 6 6 10 14 10 8 0 21 6 28 12 17 15 47 36 68 45
8 4 17 9 20 12 3 4 31 24 63 45 31 22 57 43 57 46 0 4 8 10 18 14 24 8 53 27
77 51 11 11 40 36 65 55 25 19 47 38 48 42 2 5 10 8 18 8 8 0 14 7 14 15 0 8
5 15 10 15 12 0 122 103 234 219 44 47 100 104 124 128 23 24 42 46 42 49 0 3
11 15 25 28 14 13 25 27 25 32 0 5 15 25 33 46 65 74 77 88 77 97 0 4 11 21
25 37 37 42 115 160 115 173 0 6 4 11 10 11 5 0 17 17 26 38 10 20 24 41 31
45 7 4 13 17 13 27 0 11 5 20 10 20 6 0 15 10 20 23 6 12 14 29 19 37 5 8 17
32 25 52 9 20 21 40 26 43 6 3 10 15 10 26 0 10 3 19 8 19 4 0 22 33 40 73 18
39 40 85 48 100 8 16 14 37 14 48 0 10 4 19 9 19 5 0 12 8 15 17 5 11 -4 26
-26 45 -51 44 -56 48 -67 48 -5 0 -11 7 -15 15 -3 8 -10 15 -16 15 -6 0 -18 6
-25 13 -33 29 -45 37 -55 37 -5 0 -10 6 -10 13 0 6 -18 21 -40 31 -22 11 -40
23 -40 28 0 4 -7 8 -15 8 -8 0 -15 4 -15 10 0 5 -13 16 -29 24 -16 9 -42 28
-58 44 -38 38 -67 47 -87 27 -9 -9 -16 -23 -16 -31 0 -28 -63 -22 -93 8 -22
23 -49 42 -77 55 -8 4 -24 17 -35 29 -11 11 -30 24 -42 28 -13 4 -24 15 -25
24 -2 28 2 56 10 62 10 7 32 42 38 63 4 9 13 17 20 17 8 0 14 7 14 15 0 8 5
15 10 15 6 0 10 6 10 13 0 6 16 29 34 50 33 36 56 47 56 27 0 -5 6 -10 14 -10
8 0 16 -4 18 -8 2 -4 20 -18 41 -31 20 -12 37 -27 37 -32 0 -5 5 -9 10 -9 11
0 24 -10 61 -42 10 -10 22 -18 27 -18 4 0 13 -9 19 -19 10 -16 8 -23 -12 -46
-14 -14 -25 -35 -25 -46 0 -22 22 -49 40 -49 6 0 13 -7 16 -15 4 -8 10 -15 16
-15 5 0 16 -6 23 -12 33 -30 45 -38 54 -38 5 0 11 -7 15 -15 3 -8 10 -15 16
-15 6 0 18 -6 25 -12 33 -30 45 -38 55 -38 5 0 10 -4 10 -10 0 -5 13 -16 30
-25 16 -8 37 -23 47 -34 27 -27 95 -71 104 -66 3 3 10 21 13 40 4 19 11 35 16
35 6 0 10 12 10 28 1 15 7 38 15 52 8 14 14 35 15 48 0 12 4 30 9 40 16 33 41
120 41 145 0 13 7 38 15 53 8 16 15 43 15 60 0 17 7 48 15 67 8 20 15 59 15
86 0 27 5 53 10 56 6 3 10 30 10 58 0 29 7 83 15 122 19 87 22 815 4 862 -6
15 -13 68 -16 116 -3 48 -10 90 -15 93 -4 3 -8 25 -8 49 0 24 -6 64 -14 87 -8
24 -17 64 -21 91 -3 26 -10 47 -16 47 -5 0 -9 15 -9 34 0 18 -7 50 -15 69 -8
20 -15 48 -15 62 0 14 -4 25 -10 25 -5 0 -10 15 -10 33 0 18 -7 42 -15 53 -8
10 -15 30 -15 44 0 14 -7 34 -15 44 -8 11 -15 28 -15 37 0 10 -6 30 -14 46 -8
15 -19 42 -26 58 -7 17 -18 43 -26 58 -8 16 -14 35 -14 44 0 8 -7 21 -15 29
-8 9 -15 24 -15 34 0 10 -4 22 -10 25 -5 3 -10 15 -10 25 0 10 -6 25 -14 32
-7 8 -17 24 -20 36 -4 12 -12 22 -17 22 -5 0 -9 6 -9 14 0 17 -59 134 -71 142
-5 3 -9 14 -9 25 0 10 -7 19 -15 19 -8 0 -15 8 -15 19 0 10 -6 24 -14 30 -8 7
-22 26 -31 44 -27 52 -38 70 -76 122 -20 28 -39 58 -42 68 -4 9 -11 17 -17 17
-5 0 -10 5 -10 11 0 6 -6 17 -12 24 -28 31 -38 44 -38 51 0 4 -16 22 -35 41
-19 19 -35 38 -35 42 0 5 -16 25 -35 45 -19 21 -35 39 -35 41 0 17 -408 425
-426 425 -2 0 -17 14 -34 30 -17 17 -35 30 -39 30 -5 0 -27 18 -49 40 -22 22
-43 40 -46 40 -7 0 -75 48 -86 60 -3 4 -23 17 -45 30 -22 13 -42 26 -45 29
-15 18 -103 71 -115 71 -8 0 -15 5 -15 10 0 6 -6 10 -14 10 -8 0 -16 7 -20 15
-3 8 -14 15 -25 15 -10 0 -21 7 -25 15 -3 8 -15 15 -26 15 -11 0 -23 7 -26 15
-4 8 -12 15 -19 15 -16 0 -73 29 -80 41 -4 5 -15 9 -26 9 -10 0 -19 3 -19 8 0
4 -33 22 -73 40 -39 18 -85 40 -100 48 -16 8 -37 14 -48 14 -10 0 -19 4 -19
10 0 5 -12 12 -27 16 -28 6 -84 28 -113 43 -9 5 -30 12 -48 16 -18 3 -32 11
-32 16 0 5 -13 9 -29 9 -16 0 -42 7 -57 15 -16 8 -39 15 -51 15 -12 0 -25 5
-28 10 -3 6 -18 10 -32 10 -14 0 -39 6 -56 14 -18 8 -48 17 -67 20 -58 8 -144
28 -165 37 -23 11 -120 26 -255 40 -52 5 -108 14 -124 19 -37 13 -753 12 -783
0z m1399 -680 c13 -5 59 -14 103 -19 107 -13 198 -31 209 -42 6 -5 24 -9 40
-9 17 0 40 -7 50 -15 11 -8 29 -15 40 -15 12 0 30 -7 40 -15 11 -8 30 -15 42
-15 13 0 26 -4 29 -10 3 -5 16 -10 29 -10 12 0 31 -7 42 -15 10 -8 27 -15 37
-15 10 0 25 -7 33 -15 9 -8 24 -15 35 -15 10 0 19 -4 19 -10 0 -5 6 -10 14
-10 8 0 21 -6 28 -12 20 -19 77 -48 93 -48 8 0 18 -6 22 -13 4 -7 25 -21 46
-31 20 -9 37 -21 37 -26 0 -6 9 -10 20 -10 11 0 23 -7 26 -15 4 -8 12 -15 20
-15 8 0 14 -5 14 -10 0 -6 8 -14 18 -17 18 -7 80 -51 97 -69 6 -6 30 -26 55
-45 25 -18 47 -37 48 -41 2 -5 10 -8 18 -8 8 0 14 -7 14 -15 0 -8 5 -15 11
-15 14 0 39 -25 39 -39 0 -6 7 -11 15 -11 8 0 15 -7 15 -15 0 -8 7 -15 15 -15
8 0 15 -7 15 -15 0 -8 5 -15 11 -15 14 0 39 -25 39 -39 0 -6 7 -11 15 -11 8 0
15 -6 15 -14 0 -8 3 -16 8 -18 4 -1 25 -25 47 -53 21 -27 42 -52 45 -55 3 -3
22 -27 41 -55 18 -27 37 -51 42 -53 4 -2 7 -10 7 -17 0 -7 7 -15 15 -19 8 -3
15 -12 15 -20 0 -8 11 -27 25 -42 14 -15 25 -35 25 -44 0 -10 7 -20 15 -24 8
-3 15 -14 15 -24 0 -11 7 -25 15 -32 8 -7 15 -20 15 -30 0 -10 7 -20 15 -24 8
-3 15 -15 15 -26 0 -11 5 -20 10 -20 6 0 10 -9 10 -19 0 -11 7 -26 15 -35 8
-8 15 -21 15 -29 0 -9 8 -30 17 -49 30 -61 33 -68 33 -86 0 -9 6 -26 13 -37 7
-11 21 -47 31 -80 9 -33 24 -80 32 -105 8 -25 14 -59 14 -77 0 -17 5 -35 10
-38 6 -3 10 -25 10 -48 0 -24 7 -69 15 -100 15 -59 22 -387 9 -422 -12 -30
-24 6 -24 73 0 35 -5 72 -11 83 -5 11 -13 51 -16 90 -3 38 -10 72 -14 75 -5 3
-9 22 -9 42 0 20 -7 50 -15 66 -8 15 -15 37 -15 48 0 11 -6 34 -14 51 -8 18
-16 43 -19 57 -6 28 -25 86 -38 112 -5 10 -9 26 -9 37 0 10 -7 24 -15 31 -8 7
-15 22 -15 34 0 12 -7 31 -15 42 -8 10 -15 27 -15 37 0 9 -4 17 -9 17 -5 0
-12 14 -16 30 -4 17 -11 30 -16 30 -5 0 -9 8 -9 19 0 10 -7 24 -15 31 -8 7
-15 20 -15 30 0 10 -7 23 -15 30 -8 7 -15 21 -15 31 0 11 -4 19 -9 19 -5 0
-12 8 -15 18 -12 32 -37 72 -45 72 -5 0 -12 11 -15 25 -4 14 -11 25 -16 25 -6
0 -10 7 -10 15 0 8 -4 15 -9 15 -5 0 -12 8 -15 18 -15 38 -31 62 -43 62 -7 0
-13 7 -13 15 0 8 -4 15 -9 15 -5 0 -12 8 -15 18 -4 10 -19 33 -34 50 -15 17
-49 57 -77 88 -64 74 -175 185 -249 249 -31 28 -71 62 -88 77 -17 15 -40 30
-50 34 -10 3 -18 10 -18 15 0 5 -4 9 -9 9 -6 0 -25 14 -43 30 -18 17 -38 30
-45 30 -7 0 -13 4 -13 9 0 5 -8 11 -17 15 -10 3 -31 15 -48 26 -16 11 -38 23
-47 26 -10 4 -18 10 -18 15 0 5 -19 18 -42 29 -24 11 -50 24 -58 29 -8 5 -33
17 -55 27 -22 11 -42 22 -45 25 -3 3 -17 9 -32 13 -16 3 -28 11 -28 16 0 6 -8
10 -18 10 -10 0 -27 7 -38 15 -10 8 -31 15 -46 15 -16 0 -28 4 -28 9 0 5 -33
19 -72 31 -40 13 -77 26 -82 31 -6 5 -20 9 -32 9 -12 0 -38 7 -57 15 -20 8
-47 15 -61 15 -13 0 -26 4 -28 10 -1 5 -25 12 -53 16 -27 3 -59 9 -70 14 -23
9 -134 27 -250 40 -44 4 -82 9 -85 9 -3 1 2 6 10 11 20 13 362 13 392 0z m18
-385 c14 -8 46 -14 71 -15 26 0 63 -7 82 -15 20 -8 50 -15 66 -15 16 0 33 -4
36 -10 3 -5 16 -10 28 -10 12 0 35 -7 51 -15 15 -8 36 -15 45 -15 10 0 26 -7
37 -15 10 -8 27 -15 37 -15 10 0 25 -7 33 -15 9 -8 24 -15 35 -15 10 0 19 -4
19 -10 0 -5 7 -10 15 -10 15 0 135 -59 145 -71 3 -4 15 -9 28 -13 12 -4 22
-12 22 -17 0 -5 7 -9 15 -9 8 0 15 -4 15 -10 0 -5 11 -12 25 -16 14 -3 25 -10
25 -14 0 -5 17 -19 38 -31 20 -13 39 -27 40 -31 2 -4 8 -8 13 -8 4 0 23 -15
42 -32 18 -18 53 -49 77 -68 24 -19 67 -59 95 -89 27 -30 58 -62 68 -73 9 -10
17 -21 17 -24 0 -4 11 -17 25 -30 14 -13 25 -28 25 -34 0 -5 6 -10 14 -10 7 0
17 -8 20 -17 13 -33 31 -63 38 -63 5 0 8 -6 8 -14 0 -8 7 -16 15 -20 8 -3 15
-12 15 -20 0 -8 11 -26 24 -40 13 -14 34 -48 47 -76 13 -27 27 -50 31 -50 5 0
8 -9 8 -21 0 -11 7 -27 15 -35 8 -9 15 -24 15 -35 0 -10 5 -19 10 -19 6 0 10
-11 10 -24 0 -13 7 -26 15 -30 8 -3 15 -16 15 -29 0 -13 7 -32 15 -43 8 -10
15 -29 15 -40 0 -12 7 -35 15 -50 8 -16 15 -41 15 -56 0 -16 5 -28 10 -28 6 0
10 -17 10 -37 1 -21 7 -56 15 -78 8 -22 15 -63 15 -91 0 -28 7 -71 15 -94 10
-29 15 -82 15 -169 0 -126 -12 -186 -25 -125 -3 16 -13 44 -21 62 -8 18 -14
57 -14 86 0 30 -7 70 -15 89 -8 20 -15 50 -15 66 0 16 -4 33 -10 36 -5 3 -10
18 -10 33 0 15 -7 40 -15 56 -8 15 -15 41 -15 56 0 15 -7 33 -15 40 -8 7 -15
25 -15 41 0 16 -4 29 -8 29 -4 0 -19 32 -32 70 -13 39 -28 70 -32 70 -4 0 -8
11 -8 25 0 14 -4 25 -9 25 -5 0 -14 12 -20 28 -6 15 -25 50 -40 77 -16 28 -40
69 -52 93 -12 23 -26 42 -31 42 -4 0 -8 7 -8 15 0 7 -6 18 -13 22 -8 4 -17 15
-20 23 -11 25 -30 51 -59 82 -16 16 -28 33 -28 38 0 5 -22 32 -50 59 -27 28
-50 55 -50 61 0 5 -7 10 -15 10 -8 0 -15 5 -15 11 0 14 -55 69 -69 69 -6 0
-11 7 -11 15 0 8 -5 15 -10 15 -6 0 -33 23 -61 50 -27 28 -54 50 -59 50 -5 0
-22 14 -38 30 -17 17 -35 30 -40 30 -6 0 -12 3 -14 8 -1 4 -30 25 -63 47 -33
22 -62 42 -65 45 -3 3 -23 14 -45 25 -22 11 -41 23 -43 28 -2 4 -10 7 -17 7
-8 0 -20 6 -27 13 -20 17 -77 47 -93 47 -7 0 -18 7 -25 15 -7 8 -23 15 -36 15
-13 0 -24 3 -24 8 0 7 -53 28 -100 39 -14 3 -29 12 -33 19 -4 8 -22 14 -40 14
-18 0 -41 7 -51 15 -11 8 -29 15 -40 15 -20 0 -42 6 -132 34 -29 9 -72 16 -96
16 -24 0 -48 4 -54 10 -5 5 -39 13 -74 16 -85 8 -99 12 -80 24 8 6 94 10 190
9 133 0 181 -3 200 -14z m-22 -411 c23 -8 53 -14 66 -14 13 0 37 -7 52 -15 16
-8 41 -15 56 -15 15 0 29 -4 32 -9 3 -5 22 -12 41 -15 19 -4 35 -11 35 -16 0
-6 14 -10 30 -10 17 0 30 -4 30 -9 0 -5 10 -13 23 -16 40 -12 91 -37 124 -61
17 -13 39 -24 47 -24 9 0 16 -4 16 -9 0 -5 18 -18 41 -30 22 -12 50 -30 62
-41 12 -11 43 -35 69 -53 26 -17 48 -38 48 -44 0 -7 4 -13 9 -13 12 0 131
-119 131 -131 0 -5 6 -9 13 -9 6 0 27 -22 44 -48 18 -26 42 -57 53 -69 11 -12
29 -40 41 -62 12 -23 25 -41 30 -41 5 0 9 -6 9 -14 0 -8 6 -21 13 -28 17 -18
67 -117 67 -133 0 -7 7 -18 15 -25 8 -7 15 -20 15 -30 0 -10 7 -31 15 -46 8
-16 15 -37 15 -46 0 -9 5 -20 10 -23 6 -3 10 -18 10 -32 0 -13 6 -37 14 -51
23 -44 37 -129 48 -285 10 -147 5 -237 -12 -237 -11 0 -17 22 -25 103 -4 31
-11 57 -16 57 -5 0 -9 22 -9 48 0 26 -4 52 -9 58 -10 9 -27 68 -38 129 -3 17
-12 39 -19 50 -8 11 -14 26 -14 34 0 13 -63 152 -91 201 -4 8 -19 35 -31 60
-13 25 -26 47 -30 48 -5 2 -8 9 -8 16 0 6 -12 25 -27 42 -35 39 -52 64 -59 87
-4 9 -10 17 -15 17 -5 0 -9 7 -9 15 0 8 -7 15 -15 15 -8 0 -15 4 -15 9 0 9
-34 51 -82 103 -16 16 -28 31 -28 33 0 3 -9 14 -20 25 -11 11 -22 20 -25 20
-2 0 -17 12 -33 28 -52 48 -94 82 -103 82 -5 0 -9 7 -9 15 0 8 -7 15 -15 15
-8 0 -15 4 -15 9 0 5 -8 11 -17 15 -22 7 -48 24 -81 54 -14 12 -28 22 -33 22
-4 0 -14 6 -21 13 -17 16 -200 107 -216 107 -7 0 -12 4 -12 9 0 5 -13 12 -30
16 -16 4 -32 11 -35 16 -4 5 -16 9 -28 9 -12 0 -31 7 -41 15 -11 8 -32 15 -46
15 -15 0 -30 3 -34 7 -9 9 -84 30 -151 43 -27 5 -75 14 -105 21 -30 6 -65 13
-77 15 -40 7 -25 23 25 26 94 7 308 -4 350 -18z m-2177 -1697 c14 -11 17 -60
21 -429 4 -373 6 -419 21 -436 9 -10 17 -23 17 -29 0 -12 56 -63 89 -80 28
-16 211 -18 211 -3 0 6 6 10 14 10 22 0 86 65 86 86 0 11 7 28 15 38 13 17 15
84 15 424 0 374 1 406 18 418 24 19 270 19 295 0 16 -13 17 -40 13 -412 -4
-414 -8 -478 -32 -531 -8 -17 -14 -38 -14 -47 0 -9 -7 -19 -15 -22 -8 -4 -15
-15 -15 -25 0 -10 -4 -19 -9 -19 -5 0 -13 -9 -16 -21 -8 -23 -91 -109 -106
-109 -5 0 -9 -4 -9 -9 0 -12 -110 -63 -181 -84 -73 -22 -250 -23 -309 -2 -23
8 -53 15 -66 15 -13 0 -24 3 -24 8 0 4 -21 16 -48 26 -46 19 -162 121 -162
143 0 6 -7 13 -15 17 -8 3 -15 15 -15 26 0 11 -7 23 -15 26 -8 4 -15 17 -15
30 0 13 -4 24 -9 24 -5 0 -13 25 -16 55 -4 30 -11 55 -16 55 -5 0 -9 185 -9
425 0 393 1 425 18 434 25 15 263 13 283 -2z m1322 -2 c111 -3 153 -8 169 -20
13 -8 33 -15 45 -15 13 0 23 -4 23 -9 0 -5 11 -12 25 -15 14 -4 25 -11 25 -16
0 -6 6 -10 14 -10 25 0 121 -103 128 -137 2 -10 8 -17 13 -16 6 2 11 52 13
115 2 74 7 115 15 120 7 4 209 8 449 8 l437 0 6 -34 c9 -46 2 -242 -8 -253 -5
-4 -134 -6 -287 -5 l-279 4 -6 -24 c-3 -12 -5 -61 -3 -108 l3 -85 213 -3 c266
-3 252 5 252 -145 0 -82 -4 -114 -16 -132 l-16 -25 -219 0 -219 0 -2 -227 -3
-228 -290 0 -289 0 -26 50 c-14 28 -28 52 -31 55 -3 3 -14 21 -25 40 -10 19
-22 37 -25 40 -3 3 -16 28 -30 55 -13 28 -27 52 -31 53 -5 2 -8 10 -8 17 0 7
-7 15 -15 19 -8 3 -15 12 -15 21 0 9 -8 25 -19 36 -15 17 -29 20 -77 17 l-59
-3 -3 -202 -2 -203 -155 0 -155 0 0 630 c0 589 1 630 18 639 10 6 77 8 167 5
83 -2 216 -6 298 -9z m-2443 -1203 c0 -26 7 -60 15 -76 8 -15 15 -41 15 -57 0
-17 7 -46 15 -66 8 -19 15 -46 15 -58 0 -13 7 -36 15 -51 8 -16 15 -39 15 -51
0 -13 5 -23 10 -23 6 0 10 -12 10 -26 0 -14 7 -39 15 -55 8 -16 22 -42 30 -58
8 -16 15 -36 15 -45 0 -9 4 -16 10 -16 5 0 12 -11 16 -25 3 -14 10 -25 14 -25
5 0 11 -13 15 -30 4 -16 10 -30 15 -30 4 0 10 -8 14 -17 6 -19 27 -55 37 -63
4 -3 9 -15 13 -27 4 -13 12 -23 17 -23 5 0 9 -4 9 -9 0 -6 14 -25 30 -43 17
-18 30 -38 30 -45 0 -7 5 -13 10 -13 6 0 10 -7 10 -15 0 -8 7 -15 15 -15 8 0
15 -7 15 -15 0 -8 7 -15 15 -15 8 0 15 -6 15 -12 0 -13 163 -178 175 -178 4 0
25 -18 46 -40 22 -22 41 -40 44 -40 3 0 30 -18 60 -40 30 -22 59 -40 65 -40 6
0 13 -7 16 -15 4 -8 15 -15 25 -15 10 0 19 -4 19 -10 0 -5 20 -19 44 -30 25
-11 48 -24 51 -30 3 -5 17 -10 31 -10 13 0 24 -4 24 -10 0 -5 12 -13 28 -16
15 -4 32 -10 37 -14 6 -4 22 -10 38 -14 15 -3 27 -11 27 -16 0 -6 10 -10 23
-10 13 0 32 -7 43 -15 10 -8 30 -15 44 -15 14 0 36 -7 50 -15 14 -8 39 -14 57
-15 17 0 35 -4 38 -10 3 -5 21 -10 38 -10 18 0 48 -5 67 -11 19 -6 57 -14 83
-18 26 -3 46 -10 45 -16 -4 -14 -318 -11 -398 5 -36 6 -73 16 -82 21 -10 5
-28 9 -40 9 -13 0 -36 7 -52 15 -15 8 -39 15 -52 15 -13 0 -24 4 -24 10 0 5
-18 13 -40 16 -22 4 -40 10 -40 14 0 4 -12 11 -27 15 -15 3 -30 10 -33 13 -9
12 -71 42 -86 42 -8 0 -14 4 -14 10 0 5 -20 18 -45 29 -25 11 -45 24 -45 29 0
6 -11 13 -25 16 -14 4 -25 11 -25 16 0 6 -7 10 -15 10 -8 0 -15 7 -15 15 0 8
-7 15 -15 15 -8 0 -15 5 -15 10 0 6 -6 10 -14 10 -7 0 -46 32 -85 70 -40 39
-76 70 -81 70 -6 0 -10 5 -10 11 0 7 -11 22 -25 35 -14 13 -25 27 -25 32 0 6
-7 12 -15 16 -8 3 -15 10 -15 15 0 5 -18 28 -40 51 -22 23 -43 53 -46 66 -3
13 -10 24 -15 24 -5 0 -9 7 -9 15 0 8 -4 15 -9 15 -5 0 -13 10 -17 22 -3 12
-13 28 -20 36 -8 7 -14 20 -14 28 0 8 -4 14 -9 14 -5 0 -12 14 -16 30 -4 17
-11 30 -16 30 -5 0 -9 11 -9 25 0 14 -4 25 -9 25 -5 0 -12 13 -16 30 -4 16
-11 32 -16 35 -5 4 -9 16 -9 29 0 12 -7 31 -15 42 -8 10 -15 30 -15 42 0 13
-6 38 -14 55 -8 18 -17 50 -19 72 -3 22 -10 58 -16 80 -11 42 -15 304 -5 342
10 37 24 16 24 -35z m-790 -14 c1 -35 7 -81 15 -103 8 -22 15 -61 15 -86 0
-26 7 -63 15 -82 8 -20 15 -52 15 -71 0 -19 5 -38 10 -41 6 -3 10 -21 10 -39
0 -18 7 -41 15 -52 8 -10 15 -31 15 -45 0 -14 7 -34 15 -45 8 -10 15 -34 15
-51 0 -18 4 -33 9 -33 5 0 13 -15 16 -32 4 -18 11 -37 15 -43 4 -5 10 -22 14
-37 3 -16 11 -28 16 -28 6 0 10 -10 10 -23 0 -13 7 -32 15 -43 8 -10 15 -26
15 -35 0 -9 7 -22 15 -29 8 -7 15 -21 15 -31 0 -11 3 -19 8 -19 4 0 16 -20 27
-45 11 -25 22 -45 25 -45 3 0 16 -22 29 -50 13 -27 28 -50 32 -50 5 0 9 -7 9
-15 0 -9 7 -18 15 -21 8 -4 15 -14 15 -23 0 -9 11 -28 24 -42 13 -14 27 -35
30 -47 4 -12 12 -22 17 -22 5 0 9 -7 9 -15 0 -8 7 -15 15 -15 8 0 15 -7 15
-15 0 -8 4 -15 9 -15 5 0 12 -8 15 -17 3 -10 35 -49 71 -87 36 -38 65 -71 65
-72 0 -10 259 -254 269 -254 3 0 21 -13 39 -30 18 -16 37 -30 43 -30 5 0 9 -4
9 -8 0 -5 18 -18 40 -31 22 -12 40 -26 40 -32 0 -5 7 -9 15 -9 8 0 15 -4 15
-10 0 -5 11 -12 25 -16 14 -3 25 -10 25 -14 0 -4 8 -10 18 -14 20 -6 50 -25
70 -43 7 -7 19 -13 27 -13 7 0 15 -7 19 -15 3 -8 12 -15 19 -15 18 0 75 -28
82 -41 4 -5 14 -9 24 -9 10 0 24 -7 31 -15 7 -8 23 -15 36 -15 13 0 24 -4 24
-10 0 -5 9 -10 19 -10 11 0 26 -7 35 -15 8 -8 23 -15 33 -15 11 0 28 -7 39
-15 10 -8 28 -15 39 -15 11 0 29 -7 39 -15 11 -8 30 -15 43 -15 13 0 31 -4 41
-9 37 -18 121 -41 151 -41 17 0 31 -4 31 -9 0 -6 21 -13 48 -16 26 -4 66 -13
90 -21 23 -8 70 -14 102 -14 33 0 60 -4 60 -10 0 -5 17 -11 38 -11 57 -2 101
-14 81 -23 -42 -19 -503 10 -548 34 -11 5 -34 10 -53 10 -18 0 -50 6 -73 14
-22 8 -67 22 -100 31 -33 10 -68 21 -77 26 -10 5 -26 9 -36 9 -10 0 -27 7 -38
15 -10 8 -27 15 -36 15 -9 0 -29 6 -45 14 -15 8 -61 30 -100 48 -40 18 -73 36
-73 41 0 4 -9 7 -19 7 -11 0 -23 5 -26 10 -3 6 -25 19 -48 30 -23 12 -55 30
-72 40 -16 11 -38 23 -47 26 -10 4 -18 10 -18 14 0 5 -8 11 -19 15 -10 3 -30
16 -44 28 -32 29 -58 46 -79 53 -10 4 -18 13 -18 20 0 8 -6 14 -13 14 -7 0
-21 11 -31 25 -10 14 -23 25 -27 25 -19 0 -206 181 -258 250 -19 25 -44 54
-55 65 -12 11 -37 43 -56 70 -19 28 -45 60 -57 72 -13 12 -23 29 -23 38 0 9
-7 18 -15 21 -8 4 -15 12 -15 20 0 8 -4 14 -10 14 -5 0 -10 6 -10 14 0 8 -6
21 -12 28 -7 7 -22 31 -33 53 -11 22 -26 46 -32 53 -7 7 -13 20 -13 28 0 8 -4
14 -10 14 -5 0 -10 8 -10 18 0 10 -7 27 -15 38 -8 10 -15 27 -15 37 0 9 -4 17
-10 17 -5 0 -12 16 -16 35 -3 19 -10 35 -14 35 -4 0 -11 16 -14 35 -4 19 -11
35 -16 35 -6 0 -10 10 -10 23 0 13 -7 32 -15 43 -8 10 -15 31 -15 45 0 15 -7
40 -15 55 -8 16 -15 41 -15 56 0 15 -4 29 -9 32 -4 3 -11 31 -15 63 -4 31 -10
61 -15 67 -5 6 -11 43 -14 81 -3 39 -10 93 -16 120 -11 56 -14 270 -5 328 10
58 24 44 24 -25z m380 -2 c0 -7 6 -19 14 -25 8 -7 15 -40 18 -87 3 -41 10 -80
17 -87 6 -6 11 -32 11 -57 0 -25 4 -50 10 -56 5 -5 14 -30 19 -54 23 -105 33
-140 42 -140 5 0 9 -13 9 -29 0 -16 7 -34 15 -41 8 -7 15 -23 15 -36 0 -12 4
-25 9 -29 5 -3 12 -19 16 -35 4 -17 11 -30 16 -30 5 0 9 -11 9 -24 0 -13 7
-29 15 -36 8 -7 15 -20 15 -30 0 -10 7 -23 15 -30 8 -7 15 -19 15 -26 0 -8 4
-14 10 -14 5 0 12 -11 16 -25 3 -14 10 -25 15 -25 5 0 9 -6 9 -13 0 -15 109
-183 144 -220 14 -15 26 -32 26 -37 0 -4 3 -10 8 -12 4 -1 23 -23 42 -48 47
-59 161 -174 235 -235 33 -28 62 -53 63 -57 2 -5 10 -8 18 -8 8 0 14 -7 14
-15 0 -8 6 -15 14 -15 8 0 16 -3 18 -7 2 -5 30 -26 63 -48 33 -22 62 -43 63
-47 2 -5 10 -8 18 -8 8 0 14 -4 14 -10 0 -5 6 -10 14 -10 8 0 21 -6 28 -12 7
-7 42 -28 78 -46 36 -18 72 -37 80 -41 58 -32 80 -41 93 -41 8 0 20 -7 27 -15
7 -8 23 -15 36 -15 12 0 25 -4 28 -9 3 -5 22 -12 41 -15 19 -4 35 -11 35 -16
0 -6 15 -10 34 -10 18 0 39 -7 46 -15 7 -8 27 -15 44 -15 18 0 37 -5 43 -11 6
-6 35 -14 64 -19 30 -5 92 -16 139 -25 47 -9 105 -19 130 -23 25 -4 45 -11 45
-17 0 -14 -310 -19 -335 -5 -11 6 -56 13 -100 17 -44 3 -80 9 -80 13 0 4 -23
10 -52 12 -29 3 -54 11 -56 17 -2 6 -21 11 -43 11 -21 0 -39 4 -39 9 0 5 -15
12 -32 16 -18 3 -46 12 -63 20 -70 32 -104 45 -114 45 -6 0 -11 5 -11 10 0 6
-9 10 -21 10 -11 0 -27 7 -35 15 -9 8 -24 15 -35 15 -10 0 -19 5 -19 10 0 6
-6 10 -14 10 -8 0 -21 6 -28 13 -19 16 -48 35 -75 47 -13 5 -23 13 -23 17 0 5
-18 17 -40 27 -22 11 -40 23 -40 28 0 4 -5 8 -11 8 -5 0 -24 13 -42 30 -18 16
-35 30 -39 30 -12 0 -258 247 -258 259 0 6 -7 11 -15 11 -8 0 -15 4 -15 9 0 6
-13 25 -30 43 -16 18 -30 38 -30 45 0 7 -4 13 -10 13 -5 0 -10 7 -10 15 0 8
-5 15 -10 15 -6 0 -15 11 -20 25 -5 14 -14 25 -20 25 -5 0 -10 7 -10 15 0 8
-4 15 -9 15 -5 0 -13 10 -17 23 -4 12 -9 24 -13 27 -3 3 -16 25 -29 50 -12 25
-27 52 -32 60 -6 8 -17 31 -25 50 -9 19 -19 42 -24 50 -14 26 -39 84 -44 105
-3 11 -15 45 -26 75 -12 30 -21 64 -21 75 0 11 -7 33 -15 49 -8 15 -15 44 -15
63 0 19 -6 44 -12 56 -24 42 -50 467 -29 467 6 0 11 -6 11 -14z"/>
<path d="M5140 5421 l-55 -6 0 -135 0 -134 100 3 c135 3 169 13 200 59 29 42
34 112 10 136 -8 8 -15 18 -15 23 -1 15 -45 40 -92 51 -49 12 -57 13 -148 3z"/>
<path d="M5686 5073 c-5 -13 -12 -23 -17 -23 -5 0 -9 -6 -9 -12 0 -20 -70 -88
-102 -101 -24 -9 -23 -40 2 -62 11 -10 20 -24 20 -32 0 -7 5 -13 10 -13 6 0
10 -9 10 -20 0 -10 6 -23 13 -27 6 -4 19 -21 28 -38 8 -16 20 -39 26 -50 7
-11 15 -29 20 -40 9 -23 15 159 10 328 -2 74 -6 104 -11 90z"/>
<path d="M9135 3524 c-11 -3 -29 -7 -40 -9 -29 -6 -69 -44 -88 -84 -20 -40
-22 -128 -5 -168 17 -39 73 -93 97 -93 11 0 23 -4 26 -10 3 -5 26 -10 50 -10
24 0 47 5 50 10 3 6 15 10 26 10 23 0 76 49 96 88 28 53 10 176 -31 218 -37
37 -126 60 -181 48z"/>
<path d="M1922 8387 c-23 -23 -42 -45 -42 -48 0 -4 22 -30 50 -59 l50 -52 45
45 c40 41 45 50 45 91 0 34 -4 46 -15 46 -8 0 -15 5 -15 10 0 6 -17 10 -37 10
-31 -1 -46 -9 -81 -43z"/>
<path d="M8336 8175 c-8 -8 -24 -15 -35 -15 -11 0 -22 -4 -25 -9 -3 -5 -22
-12 -41 -15 -31 -6 -51 -26 -25 -26 6 0 10 -7 10 -15 0 -8 5 -15 11 -15 7 0
23 -12 36 -27 28 -30 30 -28 64 47 11 25 25 53 30 62 5 10 9 20 9 23 0 10 -19
5 -34 -10z"/>
<path d="M9580 5961 c0 -6 -24 -11 -52 -13 l-53 -3 3 -59 c5 -75 22 -96 81
-96 30 0 48 5 57 18 16 20 19 108 4 117 -5 3 -10 15 -10 26 0 10 -7 19 -15 19
-8 0 -15 -4 -15 -9z"/>
<path d="M6518 843 c-19 -5 -25 -25 -20 -70 3 -20 10 -33 18 -33 8 0 14 -4 14
-10 0 -18 35 -11 59 11 18 17 22 28 17 52 -9 46 -39 63 -88 50z"/>
<path d="M5656 854 c-9 -24 -7 -73 4 -95 14 -25 61 -25 83 -1 23 25 21 68 -3
92 -24 24 -75 27 -84 4z"/>
</g>
</svg>
