<?xml version="1.0" encoding="UTF-8"?>
<svg version="1.1" viewBox="0 0 16 16" xmlns="http://www.w3.org/2000/svg">
 <g transform="matrix(2.5966 0 0 -2.5966 -4938.2 5100.2)">
  <g transform="matrix(.013557 0 0 .013822 1646.9 1690)">
   <path d="m19013 19836c11.9-0.2 20.4-8.9 22.4-22.2 4.5-29.6 8.6-59.2 14-88.7 6.2-33 26.8-53 59.6-59.1 29-5.4 58.3-9.5 87.5-13.9 14.9-2.3 23.2-10 23.3-22.4 0.2-12.9-8.8-21.2-23.9-23.5-29.6-4.3-59.3-8.3-88.6-13.9-32-6.1-51.7-26.2-57.7-58.2-5.5-29-9.7-58.2-14-87.5-2.3-15.4-10-23.7-23.4-23.6-13.1 0.2-20.5 8.9-22.8 24.4-4.3 29.6-8.5 59.2-14.3 88.6-6 30.4-25 49.8-55.5 55.8-29 5.6-58.3 9.2-87.3 14.6-7.8 1.4-16.9 4.4-21.9 9.8-12 13-2.8 32.8 15.4 35.6 25.7 3.8 51.6 6.2 77 11.2 52.4 10.4 67.8 26.5 77 79.1 4 23.2 6.8 46.6 9.7 70 1.9 14.8 10.7 24.1 23.5 23.9"/>
   <path d="m19259 19482c-4.8-2.6-9.2-6.4-14.3-7.5-12-2.6-24.4-3.5-36.6-5.8-16.2-2.9-26.4-12.5-29.4-29-2-11.7-3.7-23.6-5.4-35.4-1.1-7.1-2.4-14.2-11.5-14.1-8.3 0.2-9.7 6.7-10.7 13.4-1.7 12.3-3.6 24.5-5.8 36.7-2.9 16-12.9 25.3-28.6 28.3-12.1 2.3-24.4 3.9-36.7 5.5-7 0.9-13.2 3.1-13.2 10.9-0.1 7.9 5.9 10.1 13.1 11 12.7 1.5 25.2 3.7 37.8 6.1 15.4 2.9 24.7 12.4 27.6 27.7 2.3 12.6 3.3 25.4 6.4 37.7 1.2 4.7 6 10.9 10.2 11.8 8.1 1.9 10.1-5.4 11.1-12.1 1.9-12.7 3.5-25.4 6-37.9 2.9-14.7 11.9-24.2 26.8-27 13.4-2.5 26.9-3.9 40.1-6.9 4.8-1.1 8.9-5.4 13.4-8.2-0.1-1.8-0.2-3.5-0.3-5.2"/>
  </g>
 </g>
</svg>
