<svg xmlns="http://www.w3.org/2000/svg" xmlns:xlink="http://www.w3.org/1999/xlink" width="533" height="533" viewBox="0 0 533 533">
  <defs>
    <circle id="logo-without-outer-text-a" cx="202.5" cy="202.5" r="202.5"/>
  </defs>
  <g fill="none" fill-rule="evenodd">
    <circle cx="266.5" cy="266.5" r="266.5" fill="#B02727"/>
    <g transform="translate(64 64)">
      <use fill="#000" xlink:href="#logo-without-outer-text-a"/>
      <circle cx="202.5" cy="202.5" r="205" stroke="#FFF" stroke-width="5"/>
      <g fill-rule="nonzero" transform="translate(36 37)">
        <path fill="#FFF" d="M131.05 328.31C119.767322 328.598976 108.497664 327.354267 97.55 324.61 78.9717091 319.935675 61.7017805 311.092104 47.05 298.75 27.9915162 283.029278 13.8965193 262.122973 6.47 238.56 1.85849058 224.121821.0195013318 208.941677 1.05 193.82 1.32 195.55 1.53 196.82 1.71 198.03 1.89 199.24 2.08 200.72 2.25 202.03 3.36415907 210.995082 5.37420807 219.825897 8.25 228.39 19.8 263.01 41.25 289.75 72.67 308.31 85.0966382 315.583861 98.5621526 320.915436 112.6 324.12 119.044914 325.686192 125.595708 326.779105 132.2 327.39 131.938923 327.824238 131.530956 328.150611 131.05 328.31L131.05 328.31zM213.34.85C253.53 4.35 285.17 22.85 308.72 55.4 320.072679 71.1616648 327.504736 89.4024275 330.4 108.61 331.786308 117.066228 332.122187 125.661377 331.4 134.2 330.65 129.48 330.17 124.72 329.26 120.02 320.8 76.46 297.75 43.02 259.56 20.33 247.131256 13.036187 233.633157 7.74155767 219.56 4.64 212.953943 3.06675484 206.243303 1.97059458 199.48 1.36 200.48.36 201.71.62 202.85.62 206.38.63 209.86.76 213.34.85z"/>
        <path fill="#FFF" d="M198.81 21.37C263.47 15.84 316.35 75.07 310.26 132.52 306.82 102.98 295.51 77.52 274.6 56.7 253.69 35.88 228.05 24.68 198.81 21.37zM22.39 196.9C28.96 257.3 74.39 301.36 133.85 307.39 132.207267 307.889161 130.496656 308.128714 128.78 308.1 116.207678 308.385995 103.69462 306.292569 91.9 301.93 64.7 291.73 44.7 273.576667 31.9 247.47 25.0036079 233.421226 21.5029597 217.949183 21.68 202.3 21.68 200.55 21.9 198.79 22.02 197.04 22.1604087 197.074194 22.3073962 197.018577 22.39 196.9z"/>
        <path fill="#FFF" d="M197.44 42.91C247.71 37.46 294.63 83.31 289.56 134.69 288.73 133.16 288.79 131.46 288.51 129.86 282.17 94.79 263.51 68.86 231.45 52.86 221.88146 48.209992 211.644357 45.0855499 201.11 43.6 200 43.43 198.9 43.24 197.8 43.05 197.67399 43.0205691 197.552786 42.9734341 197.44 42.91L197.44 42.91zM135.47 285.86C131.301339 286.650036 127.039439 286.825228 122.82 286.38 108.795275 285.52021 95.2289003 281.060079 83.43 273.43 61.57 259.28 48.05 239.43 43.55 213.65 42.6747212 208.199871 42.3730734 202.673014 42.65 197.16 42.6765169 196.278886 42.8314832 195.406358 43.11 194.57 46.57 218.37 55.98 239.27 73.11 256.31 90.24 273.35 111.13 282.64 135.47 285.86z"/>
        <path fill="#AE2125" d="M213.34.85C209.86.77 206.34.64 202.89.63 201.75.63 200.47.38 199.52 1.37 198.592679 1.6017673 197.611025 1.34977185 196.91.7 199.11.6 200.91.42 202.67.46 206.23.52 209.8.15 213.34.85zM131.05 328.31C131.491449 328.142855 131.864489 327.833161 132.11 327.43 133.289867 327.318171 134.476426 327.558266 135.52 328.12 134.045496 328.385615 132.541725 328.449534 131.05 328.31L131.05 328.31z"/>
      </g>
    </g>
    <g transform="translate(169 169)">
      <circle cx="97.5" cy="97.5" r="97.5" fill="#AF2426"/>
      <g fill="#FFF" fill-rule="nonzero" transform="translate(19 65)">
        <path d="M110.91 17.7C110.91 13.41 110.91 9.34 110.91 5.27 110.91 3.92 110.462246 2.17616235 111.322246 1.23616235 111.916785.586316943 114.877855.913086751 115.31.91 128.51.91 141.706667.91 154.9.91 155.46.91 156.02.91 156.58.91 157.53.83 157.84 1.26 157.84 2.16 157.84 6.16 157.84 10.16 157.84 14.16 157.84 15.32 157.4 15.68 156.27 15.66 153.55 15.6 150.83 15.66 148.11 15.66L128.46 15.66C126.27 15.66 126.46 15.54 126.46 17.78 126.46 20.58 126.46 23.38 126.46 26.18 126.46 28.56 126.33 28.31 128.71 28.32L148.87 28.32C151.19 28.32 151.06 28.16 151.06 30.54 151.06 33.98 151.06 37.42 151.06 40.86 151.06 42.53 151.06 42.57 149.31 42.57 142.83 42.57 136.31 42.57 129.87 42.57 129.31 42.57 128.75 42.57 128.19 42.57 126.51 42.57 126.48 42.57 126.47 44.29 126.47 50.37 126.47 56.45 126.47 62.53 126.47 63.81 126.47 65.09 126.47 66.37 126.47 67.17 126.16 67.56 125.34 67.52 124.78 67.52 124.22 67.52 123.66 67.52 115.58 67.52 107.5 67.47 99.43 67.52 97.9938266 67.6568049 96.6344668 66.8476622 96.07 65.52 92.74 59.6 89.23 53.78 85.89 47.87 84.97 46.24 83.98 45.28 81.98 45.58 80.7846144 45.6583072 79.5853856 45.6583072 78.39 45.58 76.48 45.58 76.45 45.58 76.45 47.58 76.45 52.78 76.45 57.98 76.45 63.18 76.45 67.39 76.45 67.39 72.35 67.39 69.07 67.39 65.79 67.39 62.51 67.39 61.24 67.39 60.86 66.96 60.88 65.73 60.94 61.25 60.88 56.73 60.88 52.29 60.88 36.29 60.88 20.29 60.88 4.29 60.88 3.81 60.88 3.29 60.88 2.85 60.88.85 60.88.78 62.99.78 70.43.78 77.87.78 85.31.78 89.8806474.731905979 94.407575 1.67345232 98.58 3.54 104.026454 5.87899804 108.187022 10.4702214 109.98 16.12 109.947345 16.7849606 110.312772 17.4057931 110.91 17.7zM82.78 15.75L82.78 15.67C81.03 15.67 79.27 15.67 77.52 15.67 76.72 15.67 76.37 15.97 76.38 16.79 76.38 21.3366667 76.38 25.88 76.38 30.42 76.38 31.35 76.74 31.67 77.66 31.66 80.85 31.66 84.04 31.66 87.23 31.61 87.863999 31.5726984 88.4915286 31.4619579 89.1 31.28 92.8709433 30.3700006 95.4163773 26.8479323 95.0971181 22.9819025 94.7778589 19.1158727 91.689138 16.0590766 87.82 15.78 86.13 15.65 84.45 15.75 82.78 15.75zM110.78 28.6C110.561319 28.9654042 110.377189 29.3504041 110.23 29.75 108.975662 34.9566015 105.554743 39.3783211 100.83 41.9 99.77 42.49 99.83 42.99 100.38 43.9 103.48 48.9 106.51 54.01 109.58 59.06 109.85 59.51 109.95 60.13 110.77 60.29L110.78 28.6zM.42 22.53C.42 16.13.42 9.73333333.42 3.34.42.7.3.95 2.69.94L13.69.94C15.96.94 15.93.73 15.93 3.13 15.93 12.4633333 15.93 21.82 15.93 31.2 15.93 34.32 15.93 37.44 16.01 40.56 16.0579298 42.8030479 16.5119312 45.018846 17.35 47.1 18.6831161 50.7163212 21.9169264 53.2910355 25.74 53.78 27.8666267 54.1665843 30.0423957 54.2003695 32.18 53.88 37.54 53.04 40.78 50.07 41.98 44.77 42.4570825 42.4984993 42.6784601 40.1807421 42.64 37.86 42.64 26.4266667 42.64 14.99 42.64 3.55 42.64.55 42.48.96 45.18.94 48.94.94 52.7.94 56.46.94 58.21.94 58.25.94 58.25 2.59 58.25 15.15 58.25 27.7 58.2 40.26 58.1683192 44.5097927 57.3160413 48.7134581 55.69 52.64 52.13 61.25 45.6 66.26 36.6 68.05 31.0143749 69.2214182 25.2292745 69.0362401 19.73 67.51 10.62 64.93 4.73 58.98 2.01 49.96.898022563 46.1131319.355596786 42.1241125.4 38.12.39 32.93.42 27.73.42 22.53z"/>
      </g>
    </g>
  </g>
</svg>
