<?xml version="1.0" encoding="UTF-8"?>
<svg version="1.1" viewBox="0 0 290.18 105.03" xmlns="http://www.w3.org/2000/svg">
 <g transform="matrix(1.3333 0 0 -1.3333 -2542.5 2730.8)">
  <g transform="scale(.1)">
   <path d="m21176 20452c-2.2 0.8-3 1.3-3.7 1.3-150.7 0.1-301.3 0.1-452 0.4-7.1 0-8.6-3.6-9.7-9.3-9.5-49.4-19.1-98.7-28.8-148.1-29.9-154-59.9-308-89.9-462-4.2-21.7-8.3-43.4-12.5-65.3h272.9c0.8 1.6 1.3 2.2 1.5 3 17.2 88.6 34.3 177.1 51.4 265.7 4.3 21.9 6.2 23.6 28.2 23.6h74.4c6.4 33.3 12.7 65.5 19.1 98.8-25.2 0-48.8-0.1-72.3 0-20.2 0-24.4 4.9-20.7 24.4 9.6 49.8 19.3 99.6 29.1 149.4 3.7 18.6 6.3 20.6 25.8 20.6h158.2c5.2 0 10.3-0.9 11.7 6.6 5.5 30.2 11.4 60.4 17.3 90.9m-1698.1 0.9c-3.2 0.3-5.1 0.6-7 0.6-85.9 0-171.9-0.1-257.8 0.2-8.2 0-9.8-3.8-11.1-10.5-20.3-105.4-41.4-210.7-61.3-316.3-9.6-50.9-19.7-102-24.9-153.4-4.9-49.2 5-97.3 29.1-141.3 22.9-41.8 54.6-66 106.4-64.8 108.6 2.5 217.4 1.6 326.1 0.3 50.5-0.6 90.5 18.8 124.1 54.4 44.6 47.4 70.2 104.9 83 167.5 27.6 135 53.2 270.3 79.6 405.5 3.7 19 7.3 38 10.9 56.7-2.3 0.9-3 1.4-3.7 1.4-87.5 0.1-175.1 0.3-262.6 0-2.9 0-7.7-4.9-8.4-8.2-21.8-110-43.3-220.2-64.8-330.3-15.1-77.2-30.2-154.3-45-231.5-2.2-11.7-8.5-16.4-19.8-16.3-13.5 0.1-27.1 0-40.7 0-13.7-0.1-25 5.2-33.4 15.8-16.2 20.4-20.8 44.3-16.1 69.1 18.1 95.7 37.2 191.2 55.8 286.8 13.8 70.9 27.6 141.9 41.6 214.3m603.9-684.3c0.8 2.2 1.8 4 2.1 5.9 6.7 34.5 13.3 69 20 103.5 11 56 22.2 112 32.9 168 2.2 11.1 8.3 15.5 19.1 15.4 13.6-0.3 27.2-0.3 40.8 0 11.3 0.2 17.6-4.5 19.8-16.1 12.7-66.7 25.7-133.3 38.7-199.9 5-25.7 10.2-51.4 15.1-76.4h273.2c-0.5 4.1-0.7 7.3-1.3 10.5-16.9 86.5-33.7 173.1-50.6 259.6-3 15.4 2 21.8 17.6 22.2 9.5 0.2 18.9 0 28.5 0 9.2 47.6 18.3 93.8 27 140.1 8.2 43.7 7.3 87.5-3 130.8-8 33.8-21.7 65.1-45.6 91-18.8 20.3-41.3 30.7-69.9 30.6-163.4-0.6-326.8-0.3-490.3-0.1-9.5 0-14.5-1-16.4-12.6-7.6-44-16.8-87.8-25.3-131.6l-83.1-425.4c-7.5-38.3-14.8-76.6-22.3-115.5zm-876.45-75.738c-41.87-0-137.25 72.321-137.46 255.2-0.05 43.604 11.43 119.58 15.13 138.28 22 111.9 35.78 223.95 56.48 336.15 6.7 36.1 36.3 57.8 71.9 57.7 86.7-0.2 173.4-0.5 260.2 0.2 30 0.2 52.9-11 70.4-36.4 2.8 3.6 5.2 7 8 10.3 13.7 16.4 31.6 26.8 52.6 25.4 14.056 0.506 864.01 0.882 864.01 0.882 93.066 0.383 157.36-148.16 166.77-174.45 18.378 75.161 30.559 174.47 51.154 174.47 161.88-0.01 283.02-0.07 306.07-0.197 236.06-2.691 124.7 0 187-0.4 31.1-0.1 63.7-20.4 66.5-54.1 1-12.7-3.4-25.9-5.9-38.7-6.2-32.1-12.7-64.2-19.2-96.2-6.3-30.9-31.1-45.1-58.9-45.9-12.8-0.3-23.589-1.129-37.489-1.129 0-6.4-2.111-11.271-2.011-17.171 1.2-36.4-4.5-72.1-18-105.7-14.3-35.8-23-72.8-30-110.4-2.1-11.2-5.4-22.7-10.8-32.6-10.3-19.1-29.7-23.5-49.4-27-16.123-6.363-33.794-19.74-42.966-32.481-11.693-16.905-19.434-30.819-22.534-51.319-5.2-34.7-13.2-68.9-20-103.4-0.6-3-7.057-71.736-46.735-70.748-8.454 0.21-597.48 0-643.06 0.441-40.958 0.405-40.439 56.755-60.758 175.24-30.712-158.77-14.094-176.19-66.963-175.86-38.39 0.239-295.8 0.208-341.46-0.117-32.867 16.147-14.145 55.761-19.089 50.118-29.851-34.074-117.37-50.095-173.52-50.098z" fill="#030303"/>
   <g id="letters" fill="#8f86db">
    <path d="m19478 20453c-14-72.4-27.8-143.4-41.6-214.3-18.6-95.6-37.7-191.1-55.8-286.8-4.7-24.8-0.1-48.7 16.1-69.1 8.4-10.6 19.7-15.9 33.4-15.8 13.6 0 27.1 0.1 40.7 0 11.2-0.1 17.6 4.6 19.8 16.3 14.8 77.2 29.9 154.3 45 231.5 21.5 110.1 43 220.2 64.8 330.3 0.7 3.3 5.5 8.2 8.4 8.2 87.5 0.3 175.1 0.2 262.6 0 0.7 0 1.4-0.5 3.7-1.4-3.6-18.7-7.2-37.7-10.9-56.7-26.4-135.2-52-270.5-79.6-405.5-12.8-62.6-38.4-120.1-83-167.5-33.6-35.6-73.6-55-124.1-54.4-108.7 1.3-217.5 2.2-326.1-0.3-51.8-1.2-83.5 23-106.4 64.8-24.1 44-34 92.1-29.1 141.2 5.2 51.5 15.3 102.6 24.9 153.5 19.9 105.6 40.9 210.9 61.3 316.3 1.3 6.7 2.9 10.5 11.1 10.5 85.9-0.3 171.9-0.2 257.8-0.2 1.9 0 3.9-0.3 7-0.6"/>
    <path d="m20224 20160c13.6 0 27.2-0.1 40.8 0 14.2 0.1 18.9 4.3 21.8 18.5 5.3 26.6 10.4 53.2 16.2 79.7 5.3 24.2 4.8 47.7-6.8 70-9 17.4-22.6 27.3-43.2 26.3-11.9-0.6-24 0-36-0.1-16.9-0.1-20.2-2.7-23.4-19-9.9-51.3-19.8-102.6-29.6-154-2.8-15 1.9-21.1 17-21.4 14.4-0.3 28.8 0 43.2 0m-141.7-391.5h-273c7.5 38.9 14.8 77.2 22.3 115.5l83.1 425.4c8.5 43.8 17.7 87.6 25.3 131.6 2 11.6 6.9 12.6 16.4 12.6 163.5-0.2 326.9-0.5 490.3 0.1 28.6 0.1 51.1-10.3 69.9-30.6 23.9-25.9 37.6-57.2 45.6-91 10.3-43.3 11.2-87 3-130.8-8.7-46.3-17.8-92.5-27-140.1-9.6 0-19 0.2-28.5 0-15.6-0.4-20.6-6.9-17.6-22.2 16.9-86.5 33.7-173.1 50.6-259.6 0.6-3.2 0.8-6.3 1.3-10.4h-273.2c-4.9 24.9-10.1 50.6-15.1 76.3-13 66.6-26 133.2-38.7 199.9-2.2 11.6-8.5 16.3-19.8 16.1-13.6-0.3-27.2-0.3-40.8 0-10.8 0.2-16.9-4.3-19.1-15.4-10.7-56-21.9-112-32.9-168-6.7-34.5-13.3-69-20-103.5-0.3-1.9-1.3-3.7-2.1-5.9"/>
    <path d="m21176 20452c-5.9-30.5-11.8-60.7-17.3-90.9-1.4-7.5-6.5-6.6-11.7-6.6h-158.2c-19.5 0-22.1-2-25.8-20.6-9.8-49.8-19.5-99.6-29-149.4-3.8-19.5 0.4-24.4 20.6-24.4 23.5-0.1 47.1 0 72.3 0-6.4-33.3-12.7-65.5-19.1-98.8h-74.4c-22 0-23.9-1.7-28.1-23.6-17.2-88.6-34.3-177.1-51.5-265.7-0.2-0.8-0.7-1.4-1.5-3h-272.9c4.2 21.9 8.3 43.6 12.5 65.3 30 154 60 308 89.9 462 9.7 49.4 19.3 98.7 28.8 148.1 1.1 5.7 2.6 9.3 9.7 9.3 150.7-0.3 301.3-0.3 452-0.4 0.7 0 1.5-0.5 3.7-1.3"/>
   </g>
   <path d="m20224 20160c-14.4 0-28.8-0.3-43.2 0-15.1 0.3-19.8 6.4-17 21.4 9.8 51.4 19.7 102.7 29.6 154 3.2 16.3 6.5 18.9 23.4 19 12 0.1 24.1-0.5 36 0.1 20.6 1 34.2-8.9 43.2-26.3 11.6-22.3 12.1-45.8 6.8-70-5.8-26.5-10.9-53.1-16.2-79.7-2.9-14.2-7.6-18.4-21.8-18.5-13.6-0.1-27.2 0-40.8 0" fill="#030303"/>
  </g>
 </g>
</svg>
