<?xml version="1.0" encoding="UTF-8" standalone="no"?>
<svg width="223px" height="96px" viewBox="0 0 223 96" version="1.1" xmlns="http://www.w3.org/2000/svg" xmlns:xlink="http://www.w3.org/1999/xlink">
    <!-- Generator: Sketch 3.8.2 (29753) - http://www.bohemiancoding.com/sketch -->
    <title>Logo Text</title>
    <desc>Created with Sketch.</desc>
    <defs></defs>
    <g id="Page-1" stroke="none" stroke-width="1" fill="none" fill-rule="evenodd">
        <g id="Logo-Text" fill="#000000">
            <path d="M59.7,0 L81.8,0 C81.8,0.4 81.9,0.9 81.9,1.3 L81.9,54 C81.9,60.7 80.8,67.3 78.2,73.6 C73.9,83.9 66.4,90.8 55.8,94.1 C46.1,97.1 36.3,97.2 26.6,94.3 C13.4,90.4 5.4,81.4 1.7,68.3 C0.4,63.4 -0.2,58.4 -0.2,53.4 L-0.2,1.7 L-0.2,0.2 L21.9,0.2 L21.9,1.7 L21.9,53.6 C21.9,57.4 22.3,61.1 23.6,64.7 C25.7,70.5 29.7,73.9 35.8,75 C39.7,75.7 43.6,75.7 47.5,74.7 C54,73 57.5,68.4 58.8,62 C59.4,59 59.7,56 59.7,53 C59.8,36 59.7,18.9 59.7,1.9 C59.7,1.2 59.7,0.7 59.7,0 Z M107.5,94.3 L85.5,94.3 L85.5,-2.84217094e-14 L86.8,-2.84217094e-14 L118.6,-2.84217094e-14 C125,-2.84217094e-14 131.4,0.8 137.4,3.3 C147.6,7.5 154,14.9 156.1,25.9 C156.2,26.2 156.3,26.4 156.4,27 L156.4,-2.84217094e-14 L222.9,-2.84217094e-14 L222.9,20.8 L178.5,20.8 L178.5,38.8 L213.3,38.8 L213.3,59 L178.4,59 L178.4,94.3 L177,94.3 L138,94.3 C137.1,94.3 136.7,94 136.2,93.3 C130.7,83.7 125.1,74.2 119.5,64.6 C119,63.8 118.6,63.5 117.6,63.5 C114.2,63.6 110.9,63.5 107.4,63.5 C107.5,73.8 107.5,84 107.5,94.3 Z M156.3,85.2 C150.9,76.3 145.8,67.8 140.5,59.1 C149.3,54.6 154.6,47.6 156.3,37.9 L156.3,85.2 Z M107.5,43.4 L107.5,20.9 C107.9,20.9 108.2,20.8 108.6,20.8 C113,20.8 117.3,20.7 121.7,20.8 C123.6,20.9 125.6,21.2 127.4,21.9 C132,23.6 134.4,28.2 133.9,33.6 C133.4,38.5 129.9,42.2 124.8,43.1 C123.6,43.3 122.4,43.4 121.2,43.4 L109,43.4 L107.5,43.4 Z" id="URF"></path>
        </g>
    </g>
</svg>
