<?xml version="1.0" encoding="UTF-8"?>
<svg version="1.1" viewBox="0 0 328.45 170.63" xmlns="http://www.w3.org/2000/svg">
 <g transform="matrix(1.3333 0 0 -1.3333 -2504.2 2749.5)">
  <g transform="scale(.1)">
   <path d="m19243 19522c-15.5 7.5-28.4 13.9-41.7 20.3 1.6-17.8 12.8-23.6 41.7-20.3m-119.6 25.2c-18.3-5-36.6-7.9-47.2-28.6 11.2 1.6 20.1 2.5 28.9 4.1 16.2 3 18.4 6 18.3 24.5m135.7-66c0.1 1.7 0.2 3.4 0.3 5.2-4.5 2.8-8.6 7.1-13.4 8.2-13.2 3-26.7 4.4-40.1 6.9-14.9 2.8-23.9 12.3-26.8 27-2.5 12.5-4.1 25.2-6 37.9-1 6.7-3 14-11.1 12.1-4.2-0.9-9-7.1-10.2-11.7-3.1-12.4-4.1-25.2-6.4-37.8-2.9-15.3-12.2-24.8-27.6-27.7-12.6-2.4-25.1-4.6-37.8-6.1-7.2-0.9-13.2-3.1-13.1-10.9 0-7.9 6.2-10.1 13.2-11 12.3-1.5 24.6-3.2 36.7-5.5 15.7-3 25.7-12.3 28.6-28.3 2.2-12.2 4.1-24.4 5.8-36.7 1-6.7 2.4-13.2 10.7-13.4 9.1-0.1 10.4 7 11.4 14.1 1.8 11.8 3.5 23.7 5.5 35.4 3 16.5 13.2 26.1 29.4 29 12.2 2.3 24.6 3.2 36.6 5.8 5.1 1.1 9.5 4.9 14.3 7.5m-246.2 354c-12.8 0.2-21.6-9.1-23.5-23.9-2.9-23.4-5.7-46.8-9.7-70-9.2-52.6-24.6-68.7-77-79.1-25.4-5-51.3-7.4-77-11.2-18.3-2.8-27.4-22.6-15.4-35.6 5-5.4 14.1-8.4 21.9-9.8 29-5.4 58.3-9 87.3-14.6 30.5-6 49.5-25.4 55.5-55.8 5.8-29.4 10-59 14.3-88.6 2.3-15.5 9.7-24.2 22.8-24.3 13.4-0.2 21.1 8.1 23.4 23.5 4.3 29.3 8.5 58.5 14 87.5 6 32 25.7 52.1 57.7 58.2 29.3 5.6 59 9.6 88.6 13.9 15.1 2.3 24.1 10.6 23.9 23.5-0.1 12.4-8.4 20.1-23.3 22.4-29.2 4.4-58.5 8.5-87.5 13.9-32.8 6.1-53.4 26.1-59.6 59.1-5.4 29.5-9.5 59.1-14 88.7-2 13.3-10.5 22-22.4 22.2m1765.8-316.9c16.9 0.8 39.7 1.3 62.4 3 56.2 4.1 111.8 12.7 165.2 31.4 29.9 10.5 58.9 23.1 81.4 46.5 22.8 23.8 22.7 50.9-0.4 74.3-7.7 7.9-16.5 15.4-26.2 20.6-18.3 9.7-36.9 19.1-56.3 26-59.6 21-121.6 29.2-184.4 32.4-86.7 4.4-172.4-1.8-256.3-25.4-36.2-10.2-71.5-23.3-99.9-49.4-29.3-26.9-29.2-54.8-0.7-82.3 2.9-2.8 5.8-5.8 9.2-7.7 18.8-10.4 36.9-22.5 56.8-30.3 78.2-30.3 160.4-37.5 249.2-39.1m16.5 961.6c0.2 1 0.4 2 0.6 2.9-3.2 2.4-6.3 4.8-9.5 7.1-46.5 33.5-98.1 56.4-152.8 72.7-116.3 34.5-235.3 39.1-355 30.6-157.7-11.2-311.4-43.7-462-91.5-18.3-5.8-36.4-12.6-54.6-18.9 0.2-1 0.4-1.9 0.6-2.9h11.6c35.6 0 71.1 0.4 106.7-0.2 7.1-0.1 14.1-4.2 21.3-5.3 6.3-1 13-1 19.2-0.1 7.3 1.1 14.3 5.4 21.3 5.4 169.9 0.3 339.7 0.5 509.6-0.2 14.7 0 30.2-3.8 43.9-9.3 63.7-25.9 101-75.6 121.7-139.4 2.6-8.2 4.9-16.6 8.2-27.8 7.3 38 13.7 72.8 20.9 107.3 2.9 13.5 5.2 28.2 12.3 39.5 13 20.6 34 30.1 58.7 30.1 25.7 0.1 51.5 0 77.3 0m-1554.2-822c-0.7-1-1.5-2-2.3-3 15.6-17 30.2-34.9 46.8-50.7 67.7-63.9 150.5-98.2 239.6-118.9 92.6-21.5 186.5-25.9 281-21.6 137.5 6.2 272.4 29.8 404.7 66.4 64.5 17.9 127.4 41.6 190.9 63 4 1.3 9.1 5.9 9.7 9.5 2.6 18 3.8 36.3 5.6 55.3h-12c-45.2 0-90.4-0.8-135.5 0.5-12.5 0.3-25.8 4.9-36.9 10.8-19.6 10.5-23.2 31.3-27.1 51-9.2 46.7-18.2 93.5-27.9 143.2-1.6-6.7-2.6-10.5-3.4-14.3-9.7-48.5-19.3-97-29.2-145.5-6.7-32.7-31-45.1-59.1-45.4-94.7-0.9-189.5-0.7-284.2 0.2-12 0.1-25.4 4.5-35.8 10.9-20.1 12.2-26.6 32.3-23.6 55.5-0.9-0.1-1.3 0-1.6-0.2-1-0.6-2.1-1.2-2.9-2-46.6-45.1-102.4-65.4-167.1-64.9-109.9 0.7-219.8 0.2-329.7 0.2m1935.8 793.9c-2.2 0.8-3 1.3-3.7 1.3-150.7 0.1-301.3 0.1-452 0.4-7.1 0-8.6-3.6-9.7-9.3-9.5-49.4-19.1-98.7-28.8-148.1-29.9-154-59.9-308-89.9-462-4.2-21.7-8.3-43.4-12.5-65.3h272.9c0.8 1.6 1.3 2.2 1.5 3 17.2 88.6 34.3 177.1 51.4 265.7 4.3 21.9 6.2 23.6 28.2 23.6h74.4c6.4 33.3 12.7 65.5 19.1 98.8-25.2 0-48.8-0.1-72.3 0-20.2 0-24.4 4.9-20.7 24.4 9.6 49.8 19.3 99.6 29.1 149.4 3.7 18.6 6.3 20.6 25.8 20.6h158.2c5.2 0 10.3-0.9 11.7 6.6 5.5 30.2 11.4 60.4 17.3 90.9m-1698.1 0.9c-3.2 0.3-5.1 0.6-7 0.6-85.9 0-171.9-0.1-257.8 0.2-8.2 0-9.8-3.8-11.1-10.5-20.3-105.4-41.4-210.7-61.3-316.3-9.6-50.9-19.7-102-24.9-153.4-4.9-49.2 5-97.3 29.1-141.3 22.9-41.8 54.6-66 106.4-64.8 108.6 2.5 217.4 1.6 326.1 0.3 50.5-0.6 90.5 18.8 124.1 54.4 44.6 47.4 70.2 104.9 83 167.5 27.6 135 53.2 270.3 79.6 405.5 3.7 19 7.3 38 10.9 56.7-2.3 0.9-3 1.4-3.7 1.4-87.5 0.1-175.1 0.3-262.6 0-2.9 0-7.7-4.9-8.4-8.2-21.8-110-43.3-220.2-64.8-330.3-15.1-77.2-30.2-154.3-45-231.5-2.2-11.7-8.5-16.4-19.8-16.3-13.5 0.1-27.1 0-40.7 0-13.7-0.1-25 5.2-33.4 15.8-16.2 20.4-20.8 44.3-16.1 69.1 18.1 95.7 37.2 191.2 55.8 286.8 13.8 70.9 27.6 141.9 41.6 214.3m603.9-684.3c0.8 2.2 1.8 4 2.1 5.9 6.7 34.5 13.3 69 20 103.5 11 56 22.2 112 32.9 168 2.2 11.1 8.3 15.5 19.1 15.4 13.6-0.3 27.2-0.3 40.8 0 11.3 0.2 17.6-4.5 19.8-16.1 12.7-66.7 25.7-133.3 38.7-199.9 5-25.7 10.2-51.4 15.1-76.4h273.2c-0.5 4.1-0.7 7.3-1.3 10.5-16.9 86.5-33.7 173.1-50.6 259.6-3 15.4 2 21.8 17.6 22.2 9.5 0.2 18.9 0 28.5 0 9.2 47.6 18.3 93.8 27 140.1 8.2 43.7 7.3 87.5-3 130.8-8 33.8-21.7 65.1-45.6 91-18.8 20.3-41.3 30.7-69.9 30.6-163.4-0.6-326.8-0.3-490.3-0.1-9.5 0-14.5-1-16.4-12.6-7.6-44-16.8-87.8-25.3-131.6l-83.1-425.4c-7.5-38.3-14.8-76.6-22.3-115.5zm-808.2-262.1c6.2-11.2 9.4-22.7 4.5-35.3-0.7-1.8-1-3.9-0.8-5.7 2.5-23-8.5-37-31.6-40.2-10.3-1.4-20.5-3.2-30.9-4.2-10.5-1-15.4-6.8-16.6-16.8-1.4-11.1-2.5-22.3-4.6-33.2-3.5-18.4-16.4-30-32.1-30-15.9 0-28.6 11.4-32.2 29.8-2.1 10.6-3.1 21.3-4.4 32-1.2 10.9-6.1 17.6-18 18.4-8.3 0.6-16.6 2.3-24.8 3.7-7.8 1.4-15.5 3-23.8 4.6-0.6-4.4-1.3-9.5-2.1-14.6-4-24.4-23.2-41.9-45.3-41.3-22.6 0.6-40.5 18.2-43.9 42.8-3.8 26.9-7.6 53.8-11.8 80.6-4.4 27.7-20.3 44.3-48.3 48.6-25.6 3.9-51.2 8.8-77 11.2-28.1 2.6-50.1 22.2-47 53.2 0.8 7.7-2.9 16-1.8 23.5 3.7 25.2 18.4 38.4 43.8 41.7 23.3 3 46.8 5.8 70 9.5 41.1 6.7 53.2 18.5 60.3 59.3 4.5 25.5 7.5 51.4 11.3 77 2.4 16.4 12.2 27.1 26.7 34.4 2.9 1.4 6.2 5.2 6.5 8.2 6.9 60.8 30.9 115 60.5 167.8 9 16 10.7 36.3 14.4 55 22 111.9 44.2 223.8 64.9 336 6.7 36.1 36.3 57.8 71.9 57.7 86.7-0.2 173.4-0.5 260.2 0.2 30 0.2 52.9-11 70.4-36.4 2.8 3.6 5.2 7 8 10.3 13.7 16.4 31.6 26.8 52.6 25.4 55.2-3.6 106.7 7.4 158.8 26.1 132.3 47.5 269 78.4 408.4 96.6 101.9 13.4 204.2 22.3 307.1 16.8 110.7-6 220.4-19.4 326.5-54.2 59.4-19.4 116.1-44.8 168.2-79.7 5.2-3.5 12.6-4.9 19-4.9 62.3-0.4 124.7 0 187-0.4 31.1-0.1 63.7-20.4 66.5-54.1 1-12.7-3.4-25.9-5.9-38.7-6.2-32.1-12.7-64.2-19.2-96.2-6.3-30.9-31.1-45.1-58.9-45.9-12.8-0.3-25.6 0-39.5 0 0-6.4-0.1-12.4 0-18.3 1.2-36.4-4.5-72.1-18-105.7-14.3-35.8-23-72.8-30-110.4-2.1-11.2-5.4-22.7-10.8-32.6-10.3-19.1-29.7-23.5-49.4-27-5.6-1-11.6-4.1-15.7-8-8.4-7.9-15-17.9-23.6-25.5-15.5-13.5-23.1-29.8-26.2-50.3-5.2-34.7-13.2-68.9-20-103.4-0.6-3-0.7-6.2-1.1-9.8 21.9-5.5 43.7-10.2 64.9-16.5 33.4-9.9 65.4-22.9 94.3-43.1 29.2-20.3 39-49.2 40.2-82.5 0.9-26.1-15.4-43.7-33.9-57.6-37.5-28.2-81.3-42.6-126.6-53.6-84.9-20.8-171-25.3-257.7-20.1-39.7 2.5-79.7 6.3-118.4 15-50.2 11.4-100.8 24.5-142.8 57.5-5.2 4.2-11.2 8.1-14.9 13.5-6 8.5-12.1 7.7-20.6 4.6-183.2-67.3-371.9-110.2-566.6-125.6-149.3-11.8-298-7.6-444.5 26.3-41.9 9.7-82.7 24-124 36.2l-3.3 0.3c0.6-0.6 1.2-1.3 1.7-2" fill="#030303"/>
   <g id="letters" fill="#8f86db">
    <path d="m19478 20453c-14-72.4-27.8-143.4-41.6-214.3-18.6-95.6-37.7-191.1-55.8-286.8-4.7-24.8-0.1-48.7 16.1-69.1 8.4-10.6 19.7-15.9 33.4-15.8 13.6 0 27.1 0.1 40.7 0 11.2-0.1 17.6 4.6 19.8 16.3 14.8 77.2 29.9 154.3 45 231.5 21.5 110.1 43 220.2 64.8 330.3 0.7 3.3 5.5 8.2 8.4 8.2 87.5 0.3 175.1 0.2 262.6 0 0.7 0 1.4-0.5 3.7-1.4-3.6-18.7-7.2-37.7-10.9-56.7-26.4-135.2-52-270.5-79.6-405.5-12.8-62.6-38.4-120.1-83-167.5-33.6-35.6-73.6-55-124.1-54.4-108.7 1.3-217.5 2.2-326.1-0.3-51.8-1.2-83.5 23-106.4 64.8-24.1 44-34 92.1-29.1 141.2 5.2 51.5 15.3 102.6 24.9 153.5 19.9 105.6 40.9 210.9 61.3 316.3 1.3 6.7 2.9 10.5 11.1 10.5 85.9-0.3 171.9-0.2 257.8-0.2 1.9 0 3.9-0.3 7-0.6"/>
    <path d="m20224 20160c13.6 0 27.2-0.1 40.8 0 14.2 0.1 18.9 4.3 21.8 18.5 5.3 26.6 10.4 53.2 16.2 79.7 5.3 24.2 4.8 47.7-6.8 70-9 17.4-22.6 27.3-43.2 26.3-11.9-0.6-24 0-36-0.1-16.9-0.1-20.2-2.7-23.4-19-9.9-51.3-19.8-102.6-29.6-154-2.8-15 1.9-21.1 17-21.4 14.4-0.3 28.8 0 43.2 0m-141.7-391.5h-273c7.5 38.9 14.8 77.2 22.3 115.5l83.1 425.4c8.5 43.8 17.7 87.6 25.3 131.6 2 11.6 6.9 12.6 16.4 12.6 163.5-0.2 326.9-0.5 490.3 0.1 28.6 0.1 51.1-10.3 69.9-30.6 23.9-25.9 37.6-57.2 45.6-91 10.3-43.3 11.2-87 3-130.8-8.7-46.3-17.8-92.5-27-140.1-9.6 0-19 0.2-28.5 0-15.6-0.4-20.6-6.9-17.6-22.2 16.9-86.5 33.7-173.1 50.6-259.6 0.6-3.2 0.8-6.3 1.3-10.4h-273.2c-4.9 24.9-10.1 50.6-15.1 76.3-13 66.6-26 133.2-38.7 199.9-2.2 11.6-8.5 16.3-19.8 16.1-13.6-0.3-27.2-0.3-40.8 0-10.8 0.2-16.9-4.3-19.1-15.4-10.7-56-21.9-112-32.9-168-6.7-34.5-13.3-69-20-103.5-0.3-1.9-1.3-3.7-2.1-5.9"/>
    <path d="m21176 20452c-5.9-30.5-11.8-60.7-17.3-90.9-1.4-7.5-6.5-6.6-11.7-6.6h-158.2c-19.5 0-22.1-2-25.8-20.6-9.8-49.8-19.5-99.6-29-149.4-3.8-19.5 0.4-24.4 20.6-24.4 23.5-0.1 47.1 0 72.3 0-6.4-33.3-12.7-65.5-19.1-98.8h-74.4c-22 0-23.9-1.7-28.1-23.6-17.2-88.6-34.3-177.1-51.5-265.7-0.2-0.8-0.7-1.4-1.5-3h-272.9c4.2 21.9 8.3 43.6 12.5 65.3 30 154 60 308 89.9 462 9.7 49.4 19.3 98.7 28.8 148.1 1.1 5.7 2.6 9.3 9.7 9.3 150.7-0.3 301.3-0.3 452-0.4 0.7 0 1.5-0.5 3.7-1.3"/>
    <path d="m20874 19723h-69.2v-22.2h13.7c3.1 5.8 5.4 10.2 7.8 14.6 1.4-5 3.6-9.9 3.9-14.9 0.6-9.7 0.2-19.6 0.2-29.1 17.5-1.8 17.5-1.8 17.5 13.3 0 7.6-0.3 15.2 0.1 22.8 0.2 2.9 2 5.7 3.1 8.6 1.1-0.1 2.3-0.2 3.5-0.3 1.2-5 2.5-10 4-15.9 5.2 0.3 10.1 0.5 15.4 0.8zm-112.9-52.6c8.4 0 16.8 0.4 25.2-0.1 11.6-0.7 11.7 6.9 11.5 15-0.2 7.9 1.6 16.8-11.2 16.4-11.2-0.4-22.4-0.6-33.6 0.2-2.9 0.3-5.5 4.5-8.2 6.8 2.8 2.4 5.5 6.5 8.5 6.7 11.5 0.8 23.1 0 34.7 0.5 3.2 0.2 6.2 2.8 9.3 4.3-2.9 1.2-5.8 3.4-8.8 3.5-14 0.4-28 0.2-41.9 0.2-20 0-20.7-0.9-19.4-21 0.4-6.5 2.6-9.4 9.3-9.3 11.2 0.3 22.4 0.7 33.5-0.2 3.5-0.3 6.7-4.6 10-7.1-3.3-2.3-6.4-6.3-9.8-6.7-9.9-0.9-20 0.2-29.9-0.5-4.3-0.3-8.5-3-12.7-4.7 4-1.3 7.9-3.5 12-3.8 7.1-0.7 14.4-0.2 21.5-0.2m-75.1 0c8.8 0 17.6-0.3 26.4 0.2 2.6 0.1 5.1 2.4 7.6 3.7-2.6 1.6-5.2 4.7-8 4.8-12.3 0.5-24.7-0.2-37.1 0.5-2.6 0.2-5 4.2-7.5 6.4 2.4 2.5 4.4 6.4 7.2 7.2 4.5 1.2 9.6-0.1 14.3 0.6 2 0.3 3.8 2.6 5.7 4.1-2 1.2-4 3.2-6.2 3.5-3.9 0.6-8.2-0.6-11.9 0.5-3.3 0.9-6.1 4-9.1 6.1 3 2.6 5.9 7.1 9.1 7.4 11.1 0.9 22.3 0 33.5 0.5 3.4 0.2 6.7 2.4 10 3.7-3.2 1.5-6.3 4.2-9.5 4.3-16.4 0.4-32.8-0.1-49.2 0.3-9 0.2-12.1-3.9-11.9-12.3 0.3-9.6 0.3-19.2 0-28.8-0.2-8.9 3-13.5 12.6-12.8 8 0.5 16 0.1 24 0.1m-116.7-20.5c-2.4 2.1-5 5.8-8.6 7.1-11.1 4.4-22.4 8.2-33.9 11.4-3 0.9-6.8-0.9-10.2-1.5 2-3.2 3.3-8.1 6.1-9.2 8.7-3.3 8.9-8.3 6-15.9-4.7-11.8-9.1-23.8-12.5-36.1-1-3.3 0.9-10.1 3.5-11.4 7.3-3.7 15.5-6 23.7-7.7 2.4-0.5 7.5 2.2 8.2 4.5 6 18.5 11.3 37.3 17.7 58.8m202.7-24.3c0 0.5 0 1.1-0.1 1.6-11.9 0-23.9 0.5-35.9-0.3-3.3-0.2-6.4-3.8-9.6-5.9 3.3-2 6.6-5.7 9.9-5.8 20.3-0.5 40.7-0.1 61 0 10.2 0 24.4 3.9 29.4-1.2 6.1-6.2 4.8-20 6-30.6 3.2-28.2 3.1-28.1 30.4-23.3 7.4 1.3 10.3 4.6 9 12.2-2.4 14.5-4.4 29.2-6.8 43.7-2.3 14.7-6.1 17.3-20.7 15.9-24.2-2.3-48.4-4.2-72.6-6.3m-57.9-26.4h-0.3c0.2 4 0.3 8 0.6 12 1 12.5-2.6 16.5-14.5 18.5-34.2 5.5-68.4 11.1-102.5 17.2-15.8 2.8-18 1.2-23.9-22.3-2.9-11.6 0.1-16.2 14.5-19.2 25.4-5.2 50.9-9.6 76.3-14.8 3.8-0.8 8.2-3.2 10.2-6.3 1.3-2.1-0.1-8.8-2-9.6-4.3-1.8-9.9-2.5-14.6-1.6-27.8 5.2-55.5 11.3-83.3 16.4-3.6 0.7-7.8-2.1-11.8-3.4 3-2.6 5.5-6.5 8.9-7.6 10.2-3.2 20.7-6 31.3-7.7 30.6-5 61.4-9.5 92.2-13.8 10.6-1.5 16.5 3.2 16.8 14.7 0.1 9.2 1.4 18.3 2.1 27.5m183.6-32.6 0.9-3.3c40.7 12.2 81.6 24.2 122.1 37 3.4 1 7 7 7.3 11 1.6 21.3-12.3 31.3-32.1 25-23.5-7.5-47.3-14.4-71.1-20.9-9-2.5-15.3 3.4-12.1 11 1.4 3.4 6.8 5.9 10.9 7.2 25.8 8.2 51.8 15.7 77.6 24 3 1 4.7 5.8 7 8.9-3.4 0.8-7.2 3.1-10.2 2.3-36.8-9.9-73.6-20.3-110.4-30.4-9.1-2.5-13.6-7.4-11.8-17.4 2.6-14.1 4.9-28.3 7.1-42.5 1.3-8.7 6.1-12.5 14.8-11.9m-119.2-47.8c-88.9 1.6-171 8.8-249.2 39.2-19.9 7.7-38 19.8-56.8 30.2-3.4 1.9-6.3 4.9-9.2 7.7-28.5 27.5-28.6 55.4 0.7 82.3 28.4 26.1 63.7 39.2 99.9 49.4 83.9 23.6 169.6 29.8 256.2 25.4 62.9-3.2 124.9-11.4 184.5-32.4 19.4-6.9 38-16.3 56.3-26 9.7-5.2 18.5-12.7 26.2-20.6 23.1-23.4 23.2-50.5 0.4-74.3-22.5-23.4-51.5-36-81.4-46.5-53.4-18.7-109-27.3-165.2-31.4-22.7-1.7-45.5-2.2-62.4-3"/>
    <path d="m19013 19836c11.9-0.2 20.4-8.9 22.4-22.2 4.5-29.6 8.6-59.2 14-88.7 6.2-33 26.8-53 59.6-59.1 29-5.4 58.3-9.5 87.5-13.9 14.9-2.3 23.2-10 23.3-22.4 0.2-12.9-8.8-21.2-23.9-23.5-29.6-4.3-59.3-8.3-88.6-13.9-32-6.1-51.7-26.2-57.7-58.2-5.5-29-9.7-58.2-14-87.5-2.3-15.4-10-23.7-23.4-23.6-13.1 0.2-20.5 8.9-22.8 24.4-4.3 29.6-8.5 59.2-14.3 88.6-6 30.4-25 49.8-55.5 55.8-29 5.6-58.3 9.2-87.3 14.6-7.8 1.4-16.9 4.4-21.9 9.8-12 13-2.8 32.8 15.4 35.6 25.7 3.8 51.6 6.2 77 11.2 52.4 10.4 67.8 26.5 77 79.1 4 23.2 6.8 46.6 9.7 70 1.9 14.8 10.7 24.1 23.5 23.9"/>
    <path d="m19259 19482c-4.8-2.6-9.2-6.4-14.3-7.5-12-2.6-24.4-3.5-36.6-5.8-16.2-2.9-26.4-12.5-29.4-29-2-11.7-3.7-23.6-5.4-35.4-1.1-7.1-2.4-14.2-11.5-14.1-8.3 0.2-9.7 6.7-10.7 13.4-1.7 12.3-3.6 24.5-5.8 36.7-2.9 16-12.9 25.3-28.6 28.3-12.1 2.3-24.4 3.9-36.7 5.5-7 0.9-13.2 3.1-13.2 10.9-0.1 7.9 5.9 10.1 13.1 11 12.7 1.5 25.2 3.7 37.8 6.1 15.4 2.9 24.7 12.4 27.6 27.7 2.3 12.6 3.3 25.4 6.4 37.7 1.2 4.7 6 10.9 10.2 11.8 8.1 1.9 10.1-5.4 11.1-12.1 1.9-12.7 3.5-25.4 6-37.9 2.9-14.7 11.9-24.2 26.8-27 13.4-2.5 26.9-3.9 40.1-6.9 4.8-1.1 8.9-5.4 13.4-8.2-0.1-1.8-0.2-3.5-0.3-5.2"/>
    <path d="m20926 19583c-2 2.8-5.8 5.7-6.1 8.9-0.2 3.3 2.2 9.1 4.7 9.9 17.8 5.6 35.9 10.6 54.1 14.7 2.9 0.7 8.5-3.2 10.1-6.4 1.1-2.2-1.9-9.1-4.4-9.9-18.5-6.1-37.3-11.1-58.4-17.2"/>
    <path d="m20671 19602c-19.7 3.5-36.5 6.4-53.3 9.4-6.2 1.1-9.8 4.9-6.9 10.8 1.6 3.3 6.6 7.5 9.5 7.1 16.9-2.2 33.6-5.7 50.4-8.5 6.7-1.1 9.2-4.9 7.1-10.7-1.2-3.4-4.9-6-6.8-8.1"/>
   </g>
   <g fill="#030303">
    <path d="m20224 20160c-14.4 0-28.8-0.3-43.2 0-15.1 0.3-19.8 6.4-17 21.4 9.8 51.4 19.7 102.7 29.6 154 3.2 16.3 6.5 18.9 23.4 19 12 0.1 24.1-0.5 36 0.1 20.6 1 34.2-8.9 43.2-26.3 11.6-22.3 12.1-45.8 6.8-70-5.8-26.5-10.9-53.1-16.2-79.7-2.9-14.2-7.6-18.4-21.8-18.5-13.6-0.1-27.2 0-40.8 0"/>
    <path d="m20926 19583c21.1 6.1 39.9 11.1 58.4 17.2 2.5 0.8 5.5 7.7 4.4 9.9-1.6 3.2-7.2 7.1-10.1 6.4-18.2-4.1-36.3-9.1-54.1-14.7-2.5-0.8-4.9-6.6-4.7-9.9 0.3-3.2 4.1-6.1 6.1-8.9m-27.9-16.7c-8.7-0.6-13.5 3.2-14.8 11.9-2.2 14.2-4.5 28.4-7.1 42.5-1.8 10 2.7 14.9 11.8 17.4 36.8 10.2 73.6 20.5 110.4 30.4 3 0.8 6.8-1.5 10.2-2.3-2.3-3.1-4-7.9-7-8.9-25.8-8.3-51.8-15.8-77.6-24-4.1-1.3-9.5-3.8-10.9-7.2-3.2-7.6 3.1-13.5 12.1-11 23.8 6.5 47.6 13.4 71.1 20.9 19.8 6.3 33.7-3.7 32.1-25-0.3-4-3.9-10-7.3-11-40.5-12.8-81.3-24.8-122.1-37l-0.9 3.3"/>
    <path d="m20671 19602c1.9 2.1 5.6 4.7 6.8 8.1 2.1 5.8-0.4 9.6-7.1 10.7-16.8 2.8-33.5 6.3-50.4 8.5-2.9 0.4-7.9-3.8-9.5-7.1-2.9-5.9 0.7-9.7 6.9-10.8 16.8-3 33.6-5.9 53.3-9.4m43-2.3c-0.7-9.2-2-18.3-2.1-27.5-0.3-11.5-6.2-16.2-16.8-14.7-30.8 4.3-61.6 8.8-92.2 13.8-10.6 1.7-21.1 4.5-31.3 7.7-3.4 1.1-5.9 5-8.9 7.7 4 1.2 8.2 4 11.8 3.3 27.9-5.1 55.5-11.2 83.3-16.4 4.7-0.9 10.3-0.2 14.6 1.6 1.9 0.8 3.3 7.5 2 9.6-2 3.1-6.4 5.5-10.2 6.3-25.4 5.2-50.9 9.6-76.3 14.8-14.4 3-17.4 7.6-14.5 19.2 5.9 23.6 8.1 25.1 23.9 22.3 34.1-6.1 68.3-11.7 102.6-17.2 11.8-1.9 15.4-6 14.4-18.5-0.3-4-0.4-8-0.6-12h0.3"/>
    <path d="m20772 19626c24.2 2.1 48.5 4 72.6 6.3 14.6 1.4 18.4-1.2 20.8-15.9 2.3-14.5 4.3-29.2 6.8-43.7 1.2-7.6-1.7-10.9-9.1-12.2-27.3-4.8-27.2-4.9-30.4 23.3-1.2 10.6 0.1 24.4-6 30.6-5 5.1-19.2 1.2-29.3 1.2-20.4-0.1-40.8-0.5-61.1 0-3.3 0.1-6.6 3.8-9.9 5.8 3.2 2.1 6.3 5.7 9.6 5.9 12 0.8 24 0.3 35.9 0.3 0.1-0.5 0.1-1.1 0.1-1.6"/>
    <path d="m20569 19650c-6.3-21.5-11.6-40.3-17.7-58.8-0.7-2.3-5.8-5-8.2-4.5-8.2 1.7-16.4 4-23.7 7.7-2.6 1.3-4.5 8.1-3.5 11.4 3.4 12.3 7.8 24.3 12.5 36.1 3 7.6 2.7 12.6-6 15.9-2.8 1.1-4.1 6-6.1 9.2 3.4 0.6 7.2 2.4 10.2 1.5 11.4-3.2 22.8-7 33.9-11.4 3.6-1.3 6.2-5 8.6-7.1"/>
    <path d="m20686 19670c-8 0-16 0.4-24-0.1-9.6-0.6-12.8 3.9-12.6 12.8 0.3 9.6 0.3 19.2 0 28.8-0.2 8.4 2.9 12.5 12 12.3 16.3-0.4 32.7 0.1 49.1-0.3 3.2-0.1 6.4-2.8 9.5-4.3-3.3-1.3-6.6-3.5-10-3.7-11.2-0.5-22.4 0.4-33.5-0.5-3.2-0.3-6.1-4.8-9.1-7.4 3-2.1 5.8-5.2 9.1-6.1 3.7-1.1 8 0.1 11.9-0.5 2.2-0.3 4.2-2.3 6.2-3.5-1.9-1.5-3.7-3.8-5.7-4.1-4.7-0.7-9.8 0.6-14.3-0.6-2.8-0.8-4.8-4.7-7.2-7.2 2.5-2.2 4.9-6.2 7.5-6.4 12.4-0.7 24.8 0 37.1-0.5 2.8-0.1 5.4-3.2 8-4.8-2.5-1.3-5-3.6-7.6-3.7-8.8-0.5-17.6-0.2-26.4-0.2"/>
    <path d="m20761 19670c-7.2 0-14.5-0.5-21.6 0.2-4.1 0.3-8 2.5-12 3.8 4.2 1.7 8.4 4.4 12.7 4.7 9.9 0.7 20-0.4 29.9 0.5 3.4 0.4 6.5 4.4 9.8 6.7-3.3 2.5-6.5 6.8-9.9 7.1-11.2 0.9-22.4 0.5-33.6 0.2-6.7-0.1-8.9 2.8-9.3 9.3-1.3 20.1-0.6 21 19.4 21 13.9 0 27.9 0.2 41.9-0.2 3-0.1 5.9-2.3 8.8-3.5-3.1-1.5-6.1-4.1-9.3-4.3-11.6-0.5-23.2 0.3-34.7-0.5-3-0.2-5.7-4.3-8.5-6.7 2.7-2.3 5.3-6.5 8.2-6.7 11.2-0.9 22.4-0.7 33.6-0.3 12.8 0.4 11-8.5 11.2-16.4 0.2-8.1 0.1-15.7-11.5-15-8.4 0.5-16.8 0.1-25.1 0.1"/>
    <path d="m20874 19723v-22.3c-5.3-0.3-10.2-0.5-15.4-0.8-1.5 5.9-2.8 10.9-4 15.9-1.2 0.1-2.4 0.2-3.5 0.3-1.1-2.9-2.9-5.7-3.1-8.6-0.4-7.6-0.1-15.2-0.1-22.8 0-15.1 0-15.1-17.5-13.3 0 9.5 0.4 19.4-0.2 29.1-0.3 5-2.5 9.9-3.9 14.9-2.4-4.4-4.7-8.8-7.8-14.6h-13.7v22.2"/>
   </g>
  </g>
 </g>
</svg>
