<?xml version="1.0" encoding="UTF-8"?>
<svg width="18px" height="23px" viewBox="0 0 18 23" version="1.1" xmlns="http://www.w3.org/2000/svg" xmlns:xlink="http://www.w3.org/1999/xlink">
  <!-- Generator: Sketch 47 (45396) - http://www.bohemiancoding.com/sketch -->
  <title>Artboard</title>
  <desc>Created with Sketch.</desc>
  <defs></defs>
  <g id="Page-1" stroke="none" stroke-width="1" fill="none" fill-rule="evenodd">
    <g id="Artboard" fill="#FF0000">
      <path d="M12.5697143,11.5 C12.5697143,14.375 11.5238095,17.0831163 9.60146032,19.1889535 L10.4779048,20.0581395 C12.6366349,17.7180233 13.8174603,14.7093023 13.8174603,11.5331628 C13.8174603,8.4575814 12.7380952,5.58311628 10.747746,3.27616279 L9.87130159,4.11218605 C11.6252698,6.15116279 12.5697143,8.75872093 12.5697143,11.5 Z" id="Fill-5"></path>
      <path d="M16.6507937,11.5 C16.6507937,15.4447674 15.1666667,19.1552558 12.5017143,22.0307907 L13.3792381,22.8994419 C16.2794921,19.7906977 17.8985397,15.7790698 17.8985397,11.5331628 C17.8985397,7.42151163 16.4144127,3.57730233 13.716,0.50172093 L12.8055556,1.30404651 C15.268127,4.14534884 16.6507937,7.72265116 16.6507937,11.5 Z" id="Fill-6"></path>
      <path d="M8.52209524,11.5 C8.52209524,13.2715349 7.88095238,14.9767442 6.73412698,16.3139535 L7.61111111,17.1831395 C8.99377778,15.612186 9.76984127,13.6063721 9.76984127,11.5 C9.76984127,9.46102326 9.06177778,7.55523256 7.77949206,6.01744186 L6.90304762,6.85293023 C7.9484127,8.15697674 8.52209524,9.7947907 8.52209524,11.5 Z" id="Fill-4"></path>
      <polygon id="Shape" points="0 5 0 19 6 12.0545067"></polygon>
    </g>
  </g>
</svg>
